<?xml version="1.0" encoding="utf-8"?>
<!-- Generator: Adobe Illustrator 17.0.0, SVG Export Plug-In . SVG Version: 6.00 Build 0)  -->
<!DOCTYPE svg PUBLIC "-//W3C//DTD SVG 1.1//EN" "http://www.w3.org/Graphics/SVG/1.1/DTD/svg11.dtd">
<svg version="1.1" id="Capa_1" xmlns="http://www.w3.org/2000/svg" xmlns:xlink="http://www.w3.org/1999/xlink" x="0px" y="0px"
	 width="308.333px" height="383px" viewBox="0 0 308.333 383" enable-background="new 0 0 308.333 383" xml:space="preserve">
<polyline fill="none" stroke="#8E8D8D" stroke-miterlimit="10" points="91.093,54.724 92.799,57.893 97.55,66.697 130.947,128.604 
	"/>
<polyline fill="#1D0403" stroke="#8E8D8D" stroke-miterlimit="10" points="222.327,54.724 220.655,57.91 216.012,66.771 
	183.59,128.604 "/>
<path fill="#BF0A00" d="M254.773,278.096c0.499,0.499,0.811,1.185,0.811,1.95c0,1.525-1.236,2.761-2.755,2.761h-22.314
	c-1.525,0-2.761-1.236-2.761-2.761s1.236-2.761,2.761-2.761h3.43h13.833h5.051C253.589,277.286,254.275,277.592,254.773,278.096z"/>
<path fill="#7140B0" d="M247.778,277.286h-13.833c-1.519-23.374-16.832-40.16-39.928-42.575v-13.77
	C223.973,222.494,247.778,247.126,247.778,277.286z"/>
<path fill="#27084E" d="M220.655,57.91c0.499,0.266,1.071,0.414,1.672,0.414c1.99,0,3.606-1.616,3.606-3.6
	c0-1.99-1.616-3.606-3.606-3.606c-1.984,0-3.6,1.616-3.6,3.606C218.727,56.108,219.51,57.309,220.655,57.91z M216.012,66.771
	c-4.331-2.268-7.29-6.814-7.29-12.047c0-7.517,6.094-13.612,13.606-13.612c7.517,0,13.612,6.094,13.612,13.612
	c0,7.512-6.094,13.606-13.612,13.606C220.048,68.33,217.9,67.769,216.012,66.771z"/>
<path fill="#7140B0" d="M228.648,129.537v30.12c0,1.933-1.57,3.509-3.509,3.509h-9.354c-1.939,0-3.509-1.576-3.509-3.509v-30.12
	c0-1.939,1.57-3.509,3.509-3.509h9.354C227.078,126.027,228.648,127.598,228.648,129.537z"/>
<path fill="#7140B0" d="M220.655,57.91c-1.145-0.601-1.928-1.803-1.928-3.186c0-1.99,1.616-3.606,3.6-3.606
	c1.99,0,3.606,1.616,3.606,3.606c0,1.984-1.616,3.6-3.606,3.6C221.726,58.324,221.154,58.177,220.655,57.91z"/>
<polygon fill="#BF0A00" points="210.847,256.395 210.847,285.239 210.773,285.239 206.215,285.239 206.215,256.395 "/>
<path fill="#BF0A00" d="M210.847,125.596v38.884H100.673v-38.884h26.588h52.643H210.847z M194.015,144.271
	c0-7.517-6.094-13.612-13.606-13.612c-7.517,0-13.612,6.094-13.612,13.612c0,7.517,6.094,13.612,13.612,13.612
	C187.921,157.882,194.015,151.788,194.015,144.271z M142.988,144.271c0-7.517-6.094-13.612-13.606-13.612
	c-7.517,0-13.612,6.094-13.612,13.612c0,7.517,6.094,13.612,13.612,13.612C136.893,157.882,142.988,151.788,142.988,144.271z"/>
<path fill="#BF0A00" d="M206.215,285.239h4.558c-1.451,27.722-23.396,50.024-50.971,52.02v-14.048c0-2.149-1.74-3.889-3.889-3.889
	h-0.646c-2.149,0-3.889,1.74-3.889,3.889v14.02c-27.416-2.154-49.185-24.383-50.625-51.991h4.309h4.212h4.218h4.212h4.218h4.212
	h4.218h4.212h4.218h4.212h4.218h4.212h4.218h4.212h4.218h4.212h4.212h4.218h4.212h4.218h4.212h4.218h4.212h4.218H206.215z"/>
<rect x="202.003" y="256.395" fill="#B89FD8" width="4.212" height="28.844"/>
<rect x="197.785" y="256.395" fill="#BF0A00" width="4.218" height="28.844"/>
<rect x="193.573" y="256.395" fill="#B89FD8" width="4.212" height="28.844"/>
<path fill="#27084E" d="M194.015,233.823v11.293c0,1.939-1.57,3.509-3.509,3.509h-9.354c-1.939,0-3.509-1.57-3.509-3.509v-30.114
	c0-1.939,1.57-3.509,3.509-3.509h9.354c1.939,0,3.509,1.57,3.509,3.509v5.051V233.823z"/>
<rect x="189.355" y="256.395" fill="#BF0A00" width="4.218" height="28.844"/>
<path fill="#ED412F" d="M180.409,130.659c7.512,0,13.606,6.094,13.606,13.612c0,7.517-6.094,13.612-13.606,13.612
	c-7.517,0-13.612-6.094-13.612-13.612C166.798,136.753,172.892,130.659,180.409,130.659z M191.175,144.271
	c0-5.947-4.819-10.771-10.766-10.771c-5.953,0-10.771,4.824-10.771,10.771c0,5.947,4.819,10.771,10.771,10.771
	C186.356,155.042,191.175,150.217,191.175,144.271z"/>
<rect x="185.143" y="256.395" fill="#B89FD8" width="4.212" height="28.844"/>
<path fill="#FFFFFF" d="M180.409,133.499c5.947,0,10.766,4.824,10.766,10.771c0,5.947-4.819,10.771-10.766,10.771
	c-5.953,0-10.771-4.824-10.771-10.771C169.638,138.324,174.457,133.499,180.409,133.499z"/>
<rect x="180.925" y="256.395" fill="#BF0A00" width="4.218" height="28.844"/>
<rect x="176.713" y="256.395" fill="#B89FD8" width="4.212" height="28.844"/>
<rect x="169.638" y="166.749" fill="#FFFFFF" width="10.771" height="38.884"/>
<rect x="172.495" y="256.395" fill="#BF0A00" width="4.218" height="28.844"/>
<path fill="#BF0A00" d="M174.882,214.905v29.74c0,2.347-1.905,4.246-4.252,4.246h-29.74c-2.347,0-4.246-1.899-4.246-4.246v-29.74
	c0-2.347,1.899-4.246,4.246-4.246h29.74C172.977,210.659,174.882,212.558,174.882,214.905z"/>
<rect x="168.283" y="256.395" fill="#B89FD8" width="4.212" height="28.844"/>
<rect x="155.59" y="166.749" fill="#FFFFFF" width="14.048" height="38.884"/>
<rect x="164.071" y="256.395" fill="#BF0A00" width="4.212" height="28.844"/>
<rect x="159.853" y="256.395" fill="#B89FD8" width="4.218" height="28.844"/>
<rect x="155.641" y="256.395" fill="#BF0A00" width="4.212" height="28.844"/>
<path fill="#BF0A00" d="M159.802,323.211v14.048c-1.338,0.096-2.682,0.147-4.042,0.147c-1.474,0-2.937-0.057-4.382-0.176v-14.02
	c0-2.149,1.74-3.889,3.889-3.889h0.646C158.062,319.322,159.802,321.063,159.802,323.211z"/>
<rect x="151.423" y="256.395" fill="#B89FD8" width="4.218" height="28.844"/>
<rect x="142.988" y="166.749" fill="#FFFFFF" width="12.602" height="38.884"/>
<rect x="147.211" y="256.395" fill="#BF0A00" width="4.212" height="28.844"/>
<rect x="142.993" y="256.395" fill="#B89FD8" width="4.218" height="28.844"/>
<rect x="138.781" y="256.395" fill="#BF0A00" width="4.212" height="28.844"/>
<rect x="131.116" y="166.749" fill="#FFFFFF" width="11.871" height="38.884"/>
<path fill="#EA5F2F" d="M129.382,130.659c7.512,0,13.606,6.094,13.606,13.612c0,7.517-6.094,13.612-13.606,13.612
	c-7.517,0-13.612-6.094-13.612-13.612C115.77,136.753,121.864,130.659,129.382,130.659z M133.917,144.271
	c0-2.506-2.03-4.535-4.535-4.535c-2.506,0-4.541,2.03-4.541,4.535c0,2.506,2.035,4.535,4.541,4.535
	C131.887,148.806,133.917,146.776,133.917,144.271z"/>
<rect x="134.563" y="256.395" fill="#B89FD8" width="4.218" height="28.844"/>
<rect x="130.351" y="256.395" fill="#BF0A00" width="4.212" height="28.844"/>
<path fill="#27084E" d="M133.917,215.001v30.114c0,1.939-1.57,3.509-3.509,3.509h-9.36c-1.933,0-3.509-1.57-3.509-3.509v-11.293
	v-13.77v-5.051c0-1.939,1.576-3.509,3.509-3.509h9.36C132.347,211.492,133.917,213.063,133.917,215.001z"/>
<circle fill="#FFFFFF" cx="129.382" cy="144.271" r="4.535"/>
<rect x="126.133" y="256.395" fill="#B89FD8" width="4.218" height="28.844"/>
<rect x="121.921" y="256.395" fill="#BF0A00" width="4.212" height="28.844"/>
<rect x="117.703" y="256.395" fill="#B89FD8" width="4.218" height="28.844"/>
<rect x="113.491" y="256.395" fill="#BF0A00" width="4.212" height="28.844"/>
<path fill="#7140B0" d="M117.541,220.94v13.77c-23.09,2.415-38.403,19.201-39.922,42.575H63.787
	C63.787,247.126,87.591,222.494,117.541,220.94z"/>
<rect x="109.273" y="256.395" fill="#B89FD8" width="4.218" height="28.844"/>
<rect x="105.061" y="256.395" fill="#BF0A00" width="4.212" height="28.844"/>
<polygon fill="#B89FD8" points="105.061,256.395 105.061,285.239 100.753,285.239 100.673,285.239 100.673,256.395 "/>
<path fill="#7140B0" d="M99.194,129.979v30.12c0,1.939-1.57,3.509-3.509,3.509H86.33c-1.939,0-3.509-1.57-3.509-3.509v-30.12
	c0-1.939,1.57-3.509,3.509-3.509h9.354C97.623,126.47,99.194,128.04,99.194,129.979z"/>
<path fill="#27084E" d="M92.799,57.893c1.128-0.607,1.893-1.803,1.893-3.169c0-1.99-1.61-3.606-3.6-3.606s-3.6,1.616-3.6,3.606
	c0,1.984,1.61,3.6,3.6,3.6C91.711,58.324,92.289,58.171,92.799,57.893z M97.55,66.697c-1.922,1.043-4.121,1.633-6.457,1.633
	c-7.517,0-13.612-6.094-13.612-13.606c0-7.517,6.094-13.612,13.612-13.612c7.517,0,13.612,6.094,13.612,13.612
	C104.704,59.9,101.813,64.401,97.55,66.697z"/>
<path fill="#7140B0" d="M92.799,57.893c-0.51,0.278-1.088,0.431-1.706,0.431c-1.99,0-3.6-1.616-3.6-3.6c0-1.99,1.61-3.606,3.6-3.606
	s3.6,1.616,3.6,3.606C94.693,56.091,93.927,57.287,92.799,57.893z"/>
<path fill="#BF0A00" d="M81.049,277.286c1.525,0,2.761,1.236,2.761,2.761s-1.236,2.761-2.761,2.761H58.735
	c-1.525,0-2.761-1.236-2.761-2.761c0-0.765,0.312-1.451,0.811-1.95c0.499-0.505,1.191-0.811,1.95-0.811h5.051h13.833H81.049z"/>
<path fill="none" stroke="#8E8D8D" stroke-miterlimit="10" d="M235.939,54.724c0,7.512-6.094,13.606-13.612,13.606
	c-2.279,0-4.428-0.561-6.315-1.559c-4.331-2.268-7.29-6.814-7.29-12.047c0-7.517,6.094-13.612,13.606-13.612
	C229.844,41.113,235.939,47.207,235.939,54.724z"/>
<polygon fill="none" stroke="#8E8D8D" stroke-miterlimit="10" points="179.905,125.596 210.847,125.596 210.847,164.481 
	100.673,164.481 100.673,125.596 127.261,125.596 "/>
<polygon fill="#D1BABA" stroke="#8E8D8D" stroke-miterlimit="10" points="169.638,166.749 180.409,166.749 180.409,205.633 
	169.638,205.633 155.59,205.633 142.988,205.633 131.116,205.633 131.116,166.749 142.988,166.749 155.59,166.749 "/>
<path fill="none" stroke="#8E8D8D" stroke-miterlimit="10" d="M104.704,54.724c0,5.176-2.891,9.677-7.154,11.973
	c-1.922,1.043-4.121,1.633-6.457,1.633c-7.517,0-13.612-6.094-13.612-13.606c0-7.517,6.094-13.612,13.612-13.612
	C98.61,41.113,104.704,47.207,104.704,54.724z"/>
<path fill="none" stroke="#8D8D89" stroke-miterlimit="10" d="M142.988,144.271c0,7.517-6.094,13.612-13.606,13.612
	c-7.517,0-13.612-6.094-13.612-13.612c0-7.517,6.094-13.612,13.612-13.612C136.893,130.659,142.988,136.753,142.988,144.271z"/>
<path fill="none" stroke="#8E8D8D" stroke-miterlimit="10" d="M194.015,144.271c0,7.517-6.094,13.612-13.606,13.612
	c-7.517,0-13.612-6.094-13.612-13.612c0-7.517,6.094-13.612,13.612-13.612C187.921,130.659,194.015,136.753,194.015,144.271z"/>
<circle fill="none" stroke="#8E8D8D" stroke-miterlimit="10" cx="129.379" cy="144.271" r="4.538"/>
<path fill="none" stroke="#8E8D8D" stroke-miterlimit="10" d="M191.175,144.271c0,5.947-4.819,10.771-10.766,10.771
	c-5.953,0-10.771-4.824-10.771-10.771c0-5.947,4.819-10.771,10.771-10.771C186.356,133.499,191.175,138.324,191.175,144.271z"/>
<line fill="none" stroke="#8E8D8D" stroke-miterlimit="10" x1="142.988" y1="205.633" x2="142.988" y2="166.749"/>
<line fill="none" stroke="#8E8D8D" stroke-miterlimit="10" x1="155.59" y1="205.633" x2="155.59" y2="166.749"/>
<line fill="none" stroke="#8E8D8D" stroke-miterlimit="10" x1="169.638" y1="205.633" x2="169.638" y2="166.749"/>
<path fill="none" stroke="#8E8D8D" stroke-miterlimit="10" d="M64.92,314.753c0,2.149-1.74,3.889-3.889,3.889h-1.168
	c-2.149,0-3.889-1.74-3.889-3.889v-25.114c0-2.149,1.74-3.889,3.889-3.889h1.168c2.149,0,3.889,1.74,3.889,3.889V314.753z"/>
<path fill="none" stroke="#8E8D8D" stroke-miterlimit="10" d="M82.581,314.753c0,2.149-1.74,3.889-3.889,3.889h-1.168
	c-2.149,0-3.889-1.74-3.889-3.889v-25.114c0-2.149,1.74-3.889,3.889-3.889h1.168c2.149,0,3.889,1.74,3.889,3.889V314.753z"/>
<path fill="none" stroke="#8E8D8D" stroke-miterlimit="10" d="M247.778,314.753c0,2.149,1.74,3.889,3.883,3.889h1.174
	c2.143,0,3.883-1.74,3.883-3.889v-25.114c0-2.149-1.74-3.889-3.883-3.889h-1.174c-2.143,0-3.883,1.74-3.883,3.889V314.753z"/>
<path fill="none" stroke="#8E8D8D" stroke-miterlimit="10" d="M227.754,314.753c0,2.149,1.74,3.889,3.889,3.889h1.168
	c2.149,0,3.889-1.74,3.889-3.889v-25.114c0-2.149-1.74-3.889-3.889-3.889h-1.168c-2.149,0-3.889,1.74-3.889,3.889V314.753z"/>
<path fill="#27084E" d="M159.975,337.259v6.366c0,2.149-1.74,3.889-3.889,3.889h-0.646c-2.149,0-3.889-1.74-3.889-3.889v-6.395
	v-14.02c0-2.149,1.74-3.889,3.889-3.889h0.646c2.149,0,3.889,1.74,3.889,3.889V337.259z"/>
<path fill="#27084E" d="M197.785,335.716v6.366c0,2.149-1.74,3.889-3.889,3.889h-0.646c-2.149,0-3.889-1.74-3.889-3.889v-6.395
	v-14.02c0-2.149,1.74-3.889,3.889-3.889h0.646c2.149,0,3.889,1.74,3.889,3.889V335.716z"/>
<path fill="#27084E" d="M121.915,335.716v6.366c0,2.149-1.74,3.889-3.889,3.889h-0.646c-2.149,0-3.889-1.74-3.889-3.889v-6.395
	v-14.02c0-2.149,1.74-3.889,3.889-3.889h0.646c2.149,0,3.889,1.74,3.889,3.889V335.716z"/>
</svg>
