<?xml version="1.0" encoding="utf-8"?>
<!-- Generator: Adobe Illustrator 17.0.0, SVG Export Plug-In . SVG Version: 6.00 Build 0)  -->
<!DOCTYPE svg PUBLIC "-//W3C//DTD SVG 1.1//EN" "http://www.w3.org/Graphics/SVG/1.1/DTD/svg11.dtd">
<svg version="1.1" id="Capa_1" xmlns="http://www.w3.org/2000/svg" xmlns:xlink="http://www.w3.org/1999/xlink" x="0px" y="0px"
	 width="308.333px" height="383px" viewBox="0 0 308.333 383" enable-background="new 0 0 308.333 383" xml:space="preserve">
<polyline fill="none" stroke="#8E8D8D" stroke-miterlimit="10" points="91.093,33.097 92.799,36.266 97.55,45.07 130.947,106.977 
	"/>
<polyline fill="#1D0403" stroke="#8E8D8D" stroke-miterlimit="10" points="222.327,33.097 220.655,36.283 216.012,45.144 
	183.59,106.977 "/>
<path fill="#BF0A00" d="M255.419,164.203c0.499-0.499,0.811-1.185,0.811-1.95c0-1.525-1.236-2.761-2.755-2.761H231.16
	c-1.525,0-2.761,1.236-2.761,2.761s1.236,2.761,2.761,2.761h3.43h13.833h5.051C254.234,165.013,254.92,164.707,255.419,164.203z"/>
<path fill="#7140B0" d="M248.423,165.013H234.59c-1.519,23.374-16.832,40.16-39.928,42.575v13.77
	C224.618,219.805,248.423,195.173,248.423,165.013z"/>
<path fill="#27084E" d="M220.655,36.283c0.499,0.266,1.071,0.414,1.672,0.414c1.99,0,3.606-1.616,3.606-3.6
	c0-1.99-1.616-3.606-3.606-3.606c-1.984,0-3.6,1.616-3.6,3.606C218.727,34.48,219.51,35.682,220.655,36.283z M216.012,45.144
	c-4.331-2.268-7.29-6.814-7.29-12.047c0-7.517,6.094-13.612,13.606-13.612c7.517,0,13.612,6.094,13.612,13.612
	c0,7.512-6.094,13.606-13.612,13.606C220.048,46.703,217.9,46.142,216.012,45.144z"/>
<path fill="#7140B0" d="M228.648,77.772v30.12c0,1.933-1.57,3.509-3.509,3.509h-9.354c-1.939,0-3.509-1.576-3.509-3.509v-30.12
	c0-1.939,1.57-3.509,3.509-3.509h9.354C227.078,74.263,228.648,75.833,228.648,77.772z"/>
<path fill="#7140B0" d="M220.655,36.283c-1.145-0.601-1.928-1.803-1.928-3.186c0-1.99,1.616-3.606,3.6-3.606
	c1.99,0,3.606,1.616,3.606,3.606c0,1.984-1.616,3.6-3.606,3.6C221.726,36.697,221.154,36.549,220.655,36.283z"/>
<polygon fill="#BF0A00" points="210.847,256.395 210.847,285.239 210.773,285.239 206.215,285.239 206.215,256.395 "/>
<path fill="#BF0A00" d="M210.847,73.832v38.884H100.673V73.832h26.588h52.643H210.847z M194.015,92.506
	c0-7.517-6.094-13.612-13.606-13.612c-7.517,0-13.612,6.094-13.612,13.612c0,7.517,6.094,13.612,13.612,13.612
	C187.921,106.118,194.015,100.023,194.015,92.506z M142.988,92.506c0-7.517-6.094-13.612-13.606-13.612
	c-7.517,0-13.612,6.094-13.612,13.612c0,7.517,6.094,13.612,13.612,13.612C136.893,106.118,142.988,100.023,142.988,92.506z"/>
<path fill="#BF0A00" d="M206.215,285.239h4.558c-1.451,27.722-23.396,50.024-50.971,52.02v-14.048c0-2.149-1.74-3.889-3.889-3.889
	h-0.646c-2.149,0-3.889,1.74-3.889,3.889v14.02c-27.416-2.154-49.185-24.383-50.625-51.991h4.309h4.212h4.218h4.212h4.218h4.212
	h4.218h4.212h4.218h4.212h4.218h4.212h4.218h4.212h4.218h4.212h4.212h4.218h4.212h4.218h4.212h4.218h4.212h4.218H206.215z"/>
<rect x="202.003" y="256.395" fill="#B89FD8" width="4.212" height="28.844"/>
<rect x="197.785" y="256.395" fill="#BF0A00" width="4.218" height="28.844"/>
<rect x="193.573" y="256.395" fill="#B89FD8" width="4.212" height="28.844"/>
<path fill="#27084E" d="M194.015,218.427v11.293c0,1.939-1.57,3.509-3.509,3.509h-9.354c-1.939,0-3.509-1.57-3.509-3.509v-30.114
	c0-1.939,1.57-3.509,3.509-3.509h9.354c1.939,0,3.509,1.57,3.509,3.509v5.051V218.427z"/>
<rect x="189.355" y="256.395" fill="#BF0A00" width="4.218" height="28.844"/>
<path fill="#ED412F" d="M180.409,78.895c7.512,0,13.606,6.094,13.606,13.612c0,7.517-6.094,13.612-13.606,13.612
	c-7.517,0-13.612-6.094-13.612-13.612C166.798,84.989,172.892,78.895,180.409,78.895z M191.175,92.506
	c0-5.947-4.819-10.771-10.766-10.771c-5.953,0-10.771,4.824-10.771,10.771c0,5.947,4.819,10.771,10.771,10.771
	C186.356,103.277,191.175,98.453,191.175,92.506z"/>
<rect x="185.143" y="256.395" fill="#B89FD8" width="4.212" height="28.844"/>
<path fill="#FFFFFF" d="M180.409,81.735c5.947,0,10.766,4.824,10.766,10.771c0,5.947-4.819,10.771-10.766,10.771
	c-5.953,0-10.771-4.824-10.771-10.771C169.638,86.559,174.457,81.735,180.409,81.735z"/>
<rect x="180.925" y="256.395" fill="#BF0A00" width="4.218" height="28.844"/>
<rect x="176.713" y="256.395" fill="#B89FD8" width="4.212" height="28.844"/>
<rect x="169.638" y="114.984" fill="#FFFFFF" width="10.771" height="38.884"/>
<rect x="172.495" y="256.395" fill="#BF0A00" width="4.218" height="28.844"/>
<path fill="#BF0A00" d="M174.882,199.509v29.74c0,2.347-1.905,4.246-4.252,4.246h-29.74c-2.347,0-4.246-1.899-4.246-4.246v-29.74
	c0-2.347,1.899-4.246,4.246-4.246h29.74C172.977,195.263,174.882,197.162,174.882,199.509z"/>
<path fill="#BF0A00" d="M165.878,175.205v15.735c0,1.242-1.008,2.247-2.25,2.247h-15.735c-1.242,0-2.247-1.005-2.247-2.247v-15.735
	c0-1.242,1.005-2.247,2.247-2.247h15.735C164.87,172.959,165.878,173.963,165.878,175.205z"/>
<path fill="#BF0A00" d="M165.878,236.97v15.735c0,1.242-1.008,2.247-2.25,2.247h-15.735c-1.242,0-2.247-1.005-2.247-2.247V236.97
	c0-1.242,1.005-2.247,2.247-2.247h15.735C164.87,234.724,165.878,235.729,165.878,236.97z"/>
<path fill="#BF0A00" d="M165.878,151.624v15.735c0,1.242-1.008,2.247-2.25,2.247h-15.735c-1.242,0-2.247-1.005-2.247-2.247v-15.735
	c0-1.242,1.005-2.247,2.247-2.247h15.735C164.87,149.378,165.878,150.383,165.878,151.624z"/>
<rect x="168.283" y="256.395" fill="#B89FD8" width="4.212" height="28.844"/>
<rect x="155.59" y="114.984" fill="#FFFFFF" width="14.048" height="38.884"/>
<rect x="164.071" y="256.395" fill="#BF0A00" width="4.212" height="28.844"/>
<rect x="159.853" y="256.395" fill="#B89FD8" width="4.218" height="28.844"/>
<rect x="155.641" y="256.395" fill="#BF0A00" width="4.212" height="28.844"/>
<path fill="#BF0A00" d="M159.802,323.211v14.048c-1.338,0.096-2.682,0.147-4.042,0.147c-1.474,0-2.937-0.057-4.382-0.176v-14.02
	c0-2.149,1.74-3.889,3.889-3.889h0.646C158.062,319.322,159.802,321.063,159.802,323.211z"/>
<rect x="151.423" y="256.395" fill="#B89FD8" width="4.218" height="28.844"/>
<rect x="142.988" y="114.984" fill="#FFFFFF" width="12.602" height="38.884"/>
<rect x="147.211" y="256.395" fill="#BF0A00" width="4.212" height="28.844"/>
<rect x="142.993" y="256.395" fill="#B89FD8" width="4.218" height="28.844"/>
<rect x="138.781" y="256.395" fill="#BF0A00" width="4.212" height="28.844"/>
<rect x="131.116" y="114.984" fill="#FFFFFF" width="11.871" height="38.884"/>
<path fill="#EA5F2F" d="M129.382,78.895c7.512,0,13.606,6.094,13.606,13.612c0,7.517-6.094,13.612-13.606,13.612
	c-7.517,0-13.612-6.094-13.612-13.612C115.77,84.989,121.864,78.895,129.382,78.895z M133.917,92.506
	c0-2.506-2.03-4.535-4.535-4.535c-2.506,0-4.541,2.03-4.541,4.535c0,2.506,2.035,4.535,4.541,4.535
	C131.887,97.041,133.917,95.012,133.917,92.506z"/>
<rect x="134.563" y="256.395" fill="#B89FD8" width="4.218" height="28.844"/>
<rect x="130.351" y="256.395" fill="#BF0A00" width="4.212" height="28.844"/>
<path fill="#27084E" d="M133.917,199.605v30.114c0,1.939-1.57,3.509-3.509,3.509h-9.36c-1.933,0-3.509-1.57-3.509-3.509v-11.293
	v-13.77v-5.051c0-1.939,1.576-3.509,3.509-3.509h9.36C132.347,196.096,133.917,197.666,133.917,199.605z"/>
<circle fill="#FFFFFF" cx="129.382" cy="92.506" r="4.535"/>
<rect x="126.133" y="256.395" fill="#B89FD8" width="4.218" height="28.844"/>
<rect x="121.921" y="256.395" fill="#BF0A00" width="4.212" height="28.844"/>
<rect x="117.703" y="256.395" fill="#B89FD8" width="4.218" height="28.844"/>
<rect x="113.491" y="256.395" fill="#BF0A00" width="4.212" height="28.844"/>
<path fill="#7140B0" d="M118.186,221.359v-13.77c-23.09-2.415-38.403-19.201-39.922-42.575H64.432
	C64.432,195.173,88.236,219.805,118.186,221.359z"/>
<rect x="109.273" y="256.395" fill="#B89FD8" width="4.218" height="28.844"/>
<rect x="105.061" y="256.395" fill="#BF0A00" width="4.212" height="28.844"/>
<polygon fill="#B89FD8" points="105.061,256.395 105.061,285.239 100.753,285.239 100.673,285.239 100.673,256.395 "/>
<path fill="#7140B0" d="M99.194,78.214v30.12c0,1.939-1.57,3.509-3.509,3.509H86.33c-1.939,0-3.509-1.57-3.509-3.509v-30.12
	c0-1.939,1.57-3.509,3.509-3.509h9.354C97.623,74.705,99.194,76.275,99.194,78.214z"/>
<path fill="#27084E" d="M92.799,36.266c1.128-0.607,1.893-1.803,1.893-3.169c0-1.99-1.61-3.606-3.6-3.606s-3.6,1.616-3.6,3.606
	c0,1.984,1.61,3.6,3.6,3.6C91.711,36.697,92.289,36.544,92.799,36.266z M97.55,45.07c-1.922,1.043-4.121,1.633-6.457,1.633
	c-7.517,0-13.612-6.094-13.612-13.606c0-7.517,6.094-13.612,13.612-13.612c7.517,0,13.612,6.094,13.612,13.612
	C104.704,38.273,101.813,42.774,97.55,45.07z"/>
<path fill="#7140B0" d="M92.799,36.266c-0.51,0.278-1.088,0.431-1.706,0.431c-1.99,0-3.6-1.616-3.6-3.6c0-1.99,1.61-3.606,3.6-3.606
	s3.6,1.616,3.6,3.606C94.693,34.463,93.927,35.659,92.799,36.266z"/>
<path fill="#BF0A00" d="M81.694,165.013c1.525,0,2.761-1.236,2.761-2.761s-1.236-2.761-2.761-2.761H59.381
	c-1.525,0-2.761,1.236-2.761,2.761c0,0.765,0.312,1.451,0.811,1.95c0.499,0.505,1.191,0.811,1.95,0.811h5.051h13.833H81.694z"/>
<path fill="none" stroke="#8E8D8D" stroke-miterlimit="10" d="M235.939,33.097c0,7.512-6.094,13.606-13.612,13.606
	c-2.279,0-4.428-0.561-6.315-1.559c-4.331-2.268-7.29-6.814-7.29-12.047c0-7.517,6.094-13.612,13.606-13.612
	C229.844,19.485,235.939,25.58,235.939,33.097z"/>
<polygon fill="none" stroke="#8E8D8D" stroke-miterlimit="10" points="179.905,73.832 210.847,73.832 210.847,112.717 
	100.673,112.717 100.673,73.832 127.261,73.832 "/>
<polygon fill="#D1BABA" stroke="#8E8D8D" stroke-miterlimit="10" points="169.638,114.984 180.409,114.984 180.409,153.869 
	169.638,153.869 155.59,153.869 142.988,153.869 131.116,153.869 131.116,114.984 142.988,114.984 155.59,114.984 "/>
<path fill="none" stroke="#8E8D8D" stroke-miterlimit="10" d="M104.704,33.097c0,5.176-2.891,9.677-7.154,11.973
	c-1.922,1.043-4.121,1.633-6.457,1.633c-7.517,0-13.612-6.094-13.612-13.606c0-7.517,6.094-13.612,13.612-13.612
	C98.61,19.485,104.704,25.58,104.704,33.097z"/>
<path fill="none" stroke="#8D8D89" stroke-miterlimit="10" d="M142.988,92.506c0,7.517-6.094,13.612-13.606,13.612
	c-7.517,0-13.612-6.094-13.612-13.612c0-7.517,6.094-13.612,13.612-13.612C136.893,78.895,142.988,84.989,142.988,92.506z"/>
<path fill="none" stroke="#8E8D8D" stroke-miterlimit="10" d="M194.015,92.506c0,7.517-6.094,13.612-13.606,13.612
	c-7.517,0-13.612-6.094-13.612-13.612c0-7.517,6.094-13.612,13.612-13.612C187.921,78.895,194.015,84.989,194.015,92.506z"/>
<circle fill="none" stroke="#8E8D8D" stroke-miterlimit="10" cx="129.379" cy="92.506" r="4.538"/>
<path fill="none" stroke="#8E8D8D" stroke-miterlimit="10" d="M191.175,92.506c0,5.947-4.819,10.771-10.766,10.771
	c-5.953,0-10.771-4.824-10.771-10.771c0-5.947,4.819-10.771,10.771-10.771C186.356,81.735,191.175,86.559,191.175,92.506z"/>
<line fill="none" stroke="#8E8D8D" stroke-miterlimit="10" x1="142.988" y1="153.869" x2="142.988" y2="114.984"/>
<line fill="none" stroke="#8E8D8D" stroke-miterlimit="10" x1="155.59" y1="153.869" x2="155.59" y2="114.984"/>
<line fill="none" stroke="#8E8D8D" stroke-miterlimit="10" x1="169.638" y1="153.869" x2="169.638" y2="114.984"/>
<path fill="none" stroke="#8E8D8D" stroke-miterlimit="10" d="M65.566,127.546c0-2.149-1.74-3.889-3.889-3.889h-1.168
	c-2.149,0-3.889,1.74-3.889,3.889v25.114c0,2.149,1.74,3.889,3.889,3.889h1.168c2.149,0,3.889-1.74,3.889-3.889V127.546z"/>
<path fill="none" stroke="#8E8D8D" stroke-miterlimit="10" d="M83.227,127.546c0-2.149-1.74-3.889-3.889-3.889H78.17
	c-2.149,0-3.889,1.74-3.889,3.889v25.114c0,2.149,1.74,3.889,3.889,3.889h1.168c2.149,0,3.889-1.74,3.889-3.889V127.546z"/>
<path fill="none" stroke="#8E8D8D" stroke-miterlimit="10" d="M248.423,127.546c0-2.149,1.74-3.889,3.883-3.889h1.174
	c2.143,0,3.883,1.74,3.883,3.889v25.114c0,2.149-1.74,3.889-3.883,3.889h-1.174c-2.143,0-3.883-1.74-3.883-3.889V127.546z"/>
<path fill="none" stroke="#8E8D8D" stroke-miterlimit="10" d="M228.4,127.546c0-2.149,1.74-3.889,3.889-3.889h1.168
	c2.149,0,3.889,1.74,3.889,3.889v25.114c0,2.149-1.74,3.889-3.889,3.889h-1.168c-2.149,0-3.889-1.74-3.889-3.889V127.546z"/>
<path fill="#27084E" d="M159.975,337.259v6.366c0,2.149-1.74,3.889-3.889,3.889h-0.646c-2.149,0-3.889-1.74-3.889-3.889v-6.395
	v-14.02c0-2.149,1.74-3.889,3.889-3.889h0.646c2.149,0,3.889,1.74,3.889,3.889V337.259z"/>
<path fill="#27084E" d="M197.785,335.716v6.366c0,2.149-1.74,3.889-3.889,3.889h-0.646c-2.149,0-3.889-1.74-3.889-3.889v-6.395
	v-14.02c0-2.149,1.74-3.889,3.889-3.889h0.646c2.149,0,3.889,1.74,3.889,3.889V335.716z"/>
<path fill="#27084E" d="M121.915,335.716v6.366c0,2.149-1.74,3.889-3.889,3.889h-0.646c-2.149,0-3.889-1.74-3.889-3.889v-6.395
	v-14.02c0-2.149,1.74-3.889,3.889-3.889h0.646c2.149,0,3.889,1.74,3.889,3.889V335.716z"/>
</svg>
