<?xml version="1.0" encoding="utf-8"?>
<!-- Generator: Adobe Illustrator 17.0.0, SVG Export Plug-In . SVG Version: 6.00 Build 0)  -->
<!DOCTYPE svg PUBLIC "-//W3C//DTD SVG 1.1//EN" "http://www.w3.org/Graphics/SVG/1.1/DTD/svg11.dtd">
<svg version="1.1" id="Capa_1" xmlns="http://www.w3.org/2000/svg" xmlns:xlink="http://www.w3.org/1999/xlink" x="0px" y="0px"
	 width="200px" height="319px" viewBox="54 0 200 319" enable-background="new 54 0 200 319" xml:space="preserve">
<g>
	<path fill="#101211" d="M154.502,225.42c-21.161,0-38.313,17.152-38.313,38.313c0,21.159,17.152,38.308,38.313,38.308
		c21.153,0,38.308-17.149,38.308-38.308C192.81,242.572,175.655,225.42,154.502,225.42z M168.251,293.694
		c-8.486,4.244-10.312-4.419-3.437-6.879C171.69,284.362,179.058,288.289,168.251,293.694z"/>
	<g>
		<g>
			<path fill="#FFFFFF" d="M201.546,249.485l-47.044,1.606l-47.05-1.607c0,0-2.293,10.809,2.618,16.378
				c4.761,5.394,20.905,13.526,43.343,14.032v0.048c0.37,0,0.723-0.02,1.09-0.025c0.361,0.005,0.717,0.025,1.084,0.025v-0.048
				c22.435-0.505,38.585-8.638,43.343-14.032C203.839,260.294,201.546,249.485,201.546,249.485z"/>
			<path fill="#101211" d="M154.516,281.501c-0.313,0-0.675,0.02-1.101,0.023l0,0c-0.152,0-0.296-0.02-0.437-0.062l0,0
				c-22.633-0.658-38.793-8.65-44.099-14.551l0,0c-2.959-3.411-3.53-8.039-3.547-11.674l0,0c0-3.403,0.553-6.012,0.571-6.077l0,0
				c0.164-0.754,0.836-1.282,1.604-1.257l0,0l46.937,1.601l47.05-1.601c0.768-0.025,1.446,0.508,1.607,1.257l0,0
				c0.011,0.065,0.562,2.674,0.562,6.077l0,0c-0.011,3.637-0.585,8.268-3.547,11.674l0,0c-5.303,5.902-21.464,13.893-44.088,14.551
				l0,0c-0.144,0.042-0.288,0.062-0.441,0.062l0,0C155.16,281.521,154.801,281.501,154.516,281.501L154.516,281.501z
				 M108.502,255.237c-0.017,3.296,0.635,7.221,2.756,9.573l0,0c4.182,4.848,20.156,13.057,42.193,13.498l0,0
				c0.113,0,0.226,0.017,0.336,0.043l0,0c0.215-0.003,0.452-0.011,0.729-0.02l0,0c0.257,0.009,0.486,0.017,0.7,0.02l0,0
				c0.107-0.025,0.217-0.043,0.333-0.043l0,0c22.031-0.44,38.011-8.649,42.19-13.498l0,0c2.118-2.352,2.77-6.277,2.759-9.573l0,0
				c0-1.674-0.149-3.132-0.288-4.12l0,0l-45.767,1.553l-45.649-1.553C108.652,252.105,108.502,253.562,108.502,255.237
				L108.502,255.237z M199.999,249.818l1.547-0.333L199.999,249.818L199.999,249.818z"/>
		</g>
		<path fill="#101211" d="M182.822,275.077c2.265-0.799,4.36-1.657,6.221-2.544v-22.619l-6.221,0.212V275.077z M192.318,249.801
			v21.018c3.016-1.714,5.275-3.445,6.611-4.956c0.83-0.943,1.443-2.036,1.906-3.202V249.51L192.318,249.801z M177.259,276.819
			c0.898-0.243,1.762-0.497,2.618-0.763v-25.831l-2.618,0.091V276.819z M129.125,276.057c0.853,0.265,1.72,0.52,2.615,0.763v-26.505
			l-2.615-0.091V276.057z M119.953,272.533c1.864,0.887,3.959,1.745,6.223,2.544v-24.951l-6.223-0.212V272.533z M108.166,262.661
			c0.463,1.166,1.073,2.259,1.903,3.202c1.336,1.511,3.595,3.242,6.61,4.956v-21.018l-8.514-0.291L108.166,262.661L108.166,262.661z
			"/>
	</g>
	<g>
		<g>
			<path fill="#FF0000" d="M155.073,121.126c18.993,0,41.914-2.29,44.204,18.338c2.293,20.631,10.151,78.592,11.789,91.359
				c1.638,12.772-8.186,32.417-55.668,32.417h-1.797c-47.479,0-57.303-19.645-55.668-32.417
				c1.641-12.767,9.499-70.728,11.792-91.359c2.29-20.628,25.211-18.338,44.201-18.338
				C153.926,121.126,155.073,121.126,155.073,121.126z"/>
			<path fill="#FF0000" d="M153.601,264.824c-22.365-0.003-36.642-4.301-45.446-10.431l0,0c-8.813-6.113-11.995-14.13-11.97-20.944
				l0,0c0-0.969,0.057-1.912,0.178-2.827l0,0c1.64-12.778,9.496-70.75,11.786-91.336l0,0c0.929-8.937,5.899-14.238,12.47-16.827l0,0
				c6.549-2.637,14.636-2.982,22.706-2.993l0,0c3.586,0,7.172,0.076,10.6,0.076l0,0h1.146v1.584v1.584h-1.145
				c-3.476,0-7.057-0.073-10.6-0.073l0,0c-7.969-0.011-15.745,0.409-21.523,2.762l0,0c-5.752,2.397-9.561,6.305-10.502,14.243l0,0
				c-2.301,20.67-10.16,78.62-11.792,91.392l0,0c-0.11,0.771-0.158,1.584-0.158,2.414l0,0c0.039,11.521,10.214,28.068,54.251,28.207
				l0,0h1.796c44.034-0.138,54.21-16.686,54.247-28.206l0,0c0-0.836-0.053-1.644-0.155-2.426l0,0
				c-1.635-12.761-9.491-70.711-11.787-91.381l0,0c-0.946-7.938-4.755-11.846-10.516-14.249l0,0
				c-5.769-2.347-13.548-2.767-21.52-2.756l0,0c-3.538,0-7.119,0.073-10.595,0.073l0,0v-1.584v-1.584
				c3.425,0,7.006-0.076,10.595-0.076l0,0c8.076,0.011,16.161,0.356,22.712,2.993l0,0c6.563,2.589,11.538,7.89,12.473,16.827l0,0
				c2.284,20.585,10.143,78.558,11.781,91.336l0,0c0.121,0.915,0.184,1.858,0.184,2.827l0,0c0.017,6.808-3.16,14.831-11.976,20.944
				l0,0c-8.81,6.13-23.085,10.428-45.443,10.431l0,0H153.601L153.601,264.824z"/>
		</g>
		<path fill="#101211" d="M181.678,128.33c0-3.431-12.17-6.221-27.176-6.221c-15.011,0-27.182,2.79-27.182,6.221
			c0,3.442,12.171,6.224,27.182,6.224C169.508,134.553,181.678,131.772,181.678,128.33z"/>
		<path fill="#101211" d="M122.616,165.579c0,0.952-0.771,1.72-1.72,1.72l0,0c-0.949,0-1.72-0.768-1.72-1.72v-7.201
			c0-0.952,0.771-1.72,1.72-1.72l0,0c0.949,0,1.72,0.768,1.72,1.72C122.616,158.378,122.616,165.579,122.616,165.579z"/>
		<path fill="#101211" d="M128.1,165.579c0,0.952-0.765,1.72-1.72,1.72l0,0c-0.949,0-1.72-0.768-1.72-1.72v-7.201
			c0-0.952,0.771-1.72,1.72-1.72l0,0c0.955,0,1.72,0.768,1.72,1.72V165.579z"/>
		<path fill="#101211" d="M128.1,224.359c0,0.949-0.765,1.717-1.72,1.717l0,0c-0.949,0-1.72-0.768-1.72-1.717v-7.203
			c0-0.949,0.771-1.72,1.72-1.72l0,0c0.955,0,1.72,0.771,1.72,1.72V224.359z"/>
		<path fill="#101211" d="M111.883,219.99c-4.665-0.043-10.09-3.617-12.569-4.631l0,0l0.762-1.816
			c2.734,1.195,8.087,4.521,11.807,4.478l0,0c2.259-0.091,3.772-0.847,4.518-4.718l0,0c1.81-10.821,4.269-22.478,4.91-27.145l0,0
			c0.331-2.44,1.031-4.631,3.095-6.057l0,0c2.05-1.406,5.091-1.988,9.996-1.999l0,0c9.658,0,18.668,0,18.668,0l0,0h1.31
			c0.014,0,8.997,0,18.66,0l0,0c4.905,0.011,7.946,0.593,9.994,1.999l0,0c2.064,1.426,2.77,3.617,3.098,6.057l0,0
			c0.641,4.668,3.101,16.324,4.908,27.145l0,0c0.745,3.869,2.259,4.622,4.518,4.718l0,0c3.716,0.042,9.073-3.284,11.809-4.478l0,0
			l0.003,0.003l0.763,1.813c-2.488,1.014-7.912,4.589-12.574,4.625l0,0c-3.016,0.099-5.823-1.884-6.461-6.354l0,0
			c-1.796-10.787-4.241-22.378-4.911-27.207l0,0c-0.333-2.31-0.856-3.722-2.267-4.71l0,0c-1.437-1.014-4.123-1.655-8.878-1.649l0,0
			c-9.663,0-18.645,0-18.66,0l0,0l-1.31,0.006c0,0-9.011-0.006-18.668-0.006l0,0c-4.755-0.006-7.446,0.636-8.872,1.649l0,0
			c-1.415,0.988-1.943,2.4-2.27,4.71l0,0c-0.666,4.829-3.117,16.42-4.913,27.207l0,0c-0.63,4.374-3.332,6.359-6.266,6.359l0,0
			C112.015,219.99,111.947,219.99,111.883,219.99L111.883,219.99z"/>
		<path fill="#101211" d="M166.772,179.864v-0.98h0.562c0.342,0,0.675-0.119,1.008-0.364l0,0l0.582,0.796
			c-0.466,0.339-1.014,0.548-1.59,0.548l0,0H166.772L166.772,179.864z M162.838,179.864v-0.98h1.962v0.98H162.838L162.838,179.864z
			 M158.913,179.864v-0.98h1.963v0.98H158.913L158.913,179.864z M154.982,179.864v-0.98h1.965v0.98H154.982L154.982,179.864z
			 M151.054,179.864v-0.98h1.963v0.98H151.054L151.054,179.864z M147.124,179.864v-0.98h1.965v0.98H147.124L147.124,179.864z
			 M143.196,179.864v-0.98h1.965v0.98H143.196L143.196,179.864z M140.934,179.864c-0.68,0-1.31-0.291-1.83-0.748l0,0l0.644-0.734
			c0.392,0.339,0.785,0.503,1.186,0.503l0,0h0.297v0.98L140.934,179.864L140.934,179.864z M170.279,177.616L170.279,177.616
			L170.279,177.616h0.005H170.279L170.279,177.616z M169.406,177.17c0.254-0.494,0.46-1.079,0.599-1.734l0,0l0.963,0.209
			c-0.155,0.726-0.389,1.387-0.689,1.971l0,0L169.406,177.17L169.406,177.17z M137.24,175.374l0.968-0.178
			c0.119,0.652,0.308,1.245,0.54,1.753l0,0l-0.889,0.412C137.585,176.766,137.373,176.1,137.24,175.374L137.24,175.374z
			 M170.217,173.584c0-0.053,0-0.113,0-0.167l0,0c0-0.652-0.062-1.279-0.175-1.855l0,0l0.96-0.195c0.13,0.647,0.195,1.338,0.2,2.05
			l0,0c-0.006,0.065-0.006,0.124-0.006,0.184l0,0L170.217,173.584L170.217,173.584z M137.065,173.324
			c0.003-0.717,0.079-1.401,0.212-2.044l0,0l0.96,0.195c-0.119,0.579-0.184,1.206-0.195,1.858l0,0L137.065,173.324L137.065,173.324z
			 M168.457,168.405l0.627-0.757c0.517,0.429,0.949,1.025,1.282,1.74l0,0l-0.884,0.421
			C169.192,169.201,168.833,168.716,168.457,168.405L168.457,168.405z M137.935,169.303c0.353-0.709,0.793-1.299,1.327-1.72l0,0
			l0.604,0.777c-0.384,0.296-0.751,0.771-1.051,1.375l0,0L137.935,169.303L137.935,169.303z M170.366,169.388l0.006-0.003
			L170.366,169.388L170.366,169.388L170.366,169.388z M164.979,167.956v-0.983h1.968v0.983H164.979L164.979,167.956z
			 M161.053,167.956v-0.983h1.963v0.983H161.053L161.053,167.956z M157.123,167.956v-0.983h1.963v0.983H157.123L157.123,167.956z
			 M153.195,167.956v-0.983h1.965v0.983H153.195L153.195,167.956z M149.264,167.956v-0.983h1.963v0.983H149.264L149.264,167.956z
			 M145.336,167.956v-0.983h1.963v0.983H145.336L145.336,167.956z M141.408,167.956v-0.983h1.965v0.983H141.408L141.408,167.956z"/>
	</g>
	<g>
		<g>
			<g>
				<path fill="#FFFFFF" d="M41.632,104.272c-1.615-4.007-7.692-10.476-17.846-10.476c-10.149,0-11.134,13.097-9.172,15.881
					c1.968,2.781,6.224,2.454,9.011-0.822c2.781-3.273,8.675,2.784,6.546,6.063c-2.126,3.273-6.385,0.816-6.546,3.6
					c-0.167,2.781,0.492,6.546,8.836,6.876C40.813,125.721,46.379,116.058,41.632,104.272z"/>
				<path fill="#101211" d="M14.653,97.108c1.748-2.746,4.86-4.926,9.132-4.898l0,0c10.88,0.039,17.434,6.849,19.315,11.469l0,0
					l0.003-0.003c1.276,3.16,1.861,6.215,1.861,9.022l0,0c-0.014,8.042-5.029,14.269-12.089,14.286l0,0
					c-0.149,0-0.302,0-0.474-0.009l0,0c-4.052-0.164-6.678-1.093-8.347-2.654l0,0c-1.675-1.576-2.045-3.614-2.033-5.156l0,0
					c0-0.254,0.009-0.5,0.02-0.743l0,0c-0.006-1.107,0.808-2.281,1.705-2.62l0,0c0.856-0.379,1.584-0.395,2.248-0.48l0,0
					c1.381-0.164,2.185-0.277,2.849-1.274l0,0c0.133-0.203,0.198-0.421,0.203-0.731l0,0c0.02-0.669-0.455-1.751-1.22-2.561l0,0
					c-0.746-0.822-1.734-1.285-2.225-1.257l0,0c-0.316,0.017-0.463,0.053-0.768,0.384l0,0c-1.79,2.095-4.154,3.253-6.486,3.259l0,0
					c-1.917,0.012-3.84-0.856-5.026-2.561l0,0c-0.842-1.265-1.084-2.861-1.11-4.781l0,0C12.216,103.103,12.875,99.858,14.653,97.108
					L14.653,97.108z M15.91,108.759c0.599,0.819,1.4,1.203,2.437,1.214l0,0c1.251,0.009,2.81-0.658,4.069-2.14l0,0
					c0.819-0.997,2.05-1.522,3.185-1.505l0,0c1.836,0.034,3.363,1.025,4.546,2.276l0,0c1.166,1.271,2.044,2.889,2.064,4.713l0,0
					c0.005,0.825-0.215,1.7-0.709,2.462l0,0c-2.089,3.106-5.588,2.558-6.3,2.835l0,0c-0.008,0.184-0.008,0.367-0.008,0.551l0,0
					c0.008,1.144,0.209,2.064,1.033,2.852l0,0c0.836,0.805,2.64,1.652,6.291,1.79l0,0c0.116,0.006,0.237,0.009,0.356,0.009l0,0
					c4.995-0.014,8.855-4.261,8.92-11.118l0,0c0-2.364-0.494-5.021-1.635-7.833l0,0c-1.347-3.4-6.955-9.529-16.375-9.486l0,0
					c-3.225,0.031-5.108,1.425-6.481,3.461l0,0c-1.341,2.039-1.934,4.792-1.926,6.961l0,0
					C15.354,107.308,15.735,108.575,15.91,108.759L15.91,108.759z"/>
			</g>
			<path fill="#101211" d="M71.019,113.686l-18.662-8.104c0,0-2.948,14.246,5.153,22.35l13.266,6.385L71.019,113.686z"/>
			<g>
				<path fill="#FF0000" d="M97.052,137.999c0,0,12.526-11.538-0.491-18.171c-13.018-6.633-37.328-15.965-37.328-15.965
					s-6.385,20.139,11.544,30.455L97.052,137.999"/>
				<path fill="#101211" d="M56.544,112.162c0.005-5.057,1.149-8.675,1.177-8.776l0,0c0.133-0.412,0.432-0.762,0.825-0.952l0,0
					c0.389-0.186,0.853-0.209,1.256-0.048l0,0c0.023,0.009,24.319,9.327,37.478,16.031l0,0c4.809,2.377,6.831,5.907,6.783,9.279l0,0
					c-0.13,6.359-5.882,11.323-5.936,11.47l0,0L97.051,138l-0.217,1.567l-26.281-3.682l-0.57-0.198
					c-10.979-6.292-13.439-16.308-13.439-23.356l0,0C56.544,112.274,56.544,112.218,56.544,112.162L56.544,112.162z M60.244,106.5
					c-0.265,1.392-0.531,3.374-0.531,5.662l0,0c0.037,6.404,1.951,14.921,11.595,20.628l0,0l25.18,3.532
					c0.477-0.497,1.228-1.333,1.985-2.4l0,0c1.271-1.773,2.443-4.126,2.423-6.226l0,0c-0.051-2.152-0.952-4.309-5.052-6.458l0,0
					c-10.849-5.535-29.797-13.024-35.501-15.246l0,0C60.309,106.15,60.275,106.316,60.244,106.5L60.244,106.5z"/>
			</g>
			<path fill="#101211" d="M67.122,115.463c0.025,0.63,0.079,1.271,0.181,1.897l0,0l-0.971,0.153
				c-0.107-0.672-0.167-1.35-0.189-2.019l0,0L67.122,115.463L67.122,115.463z M66.374,111.49l0.971,0.138
				c-0.084,0.599-0.155,1.248-0.195,1.917l0,0l-0.98-0.062C66.216,112.783,66.284,112.117,66.374,111.49L66.374,111.49z
				 M67.196,107.567l0.94,0.288c0,0-0.223,0.715-0.463,1.864l0,0l-0.957-0.201C66.961,108.33,67.19,107.579,67.196,107.567
				L67.196,107.567z M66.817,119.501L66.817,119.501L66.817,119.501L66.817,119.501L66.817,119.501L66.817,119.501z M67.749,119.179
				c0.203,0.596,0.455,1.158,0.782,1.677l0,0l-0.836,0.52c-0.364-0.587-0.655-1.22-0.878-1.875l0,0L67.749,119.179L67.749,119.179z
				 M69.703,122.243c0.435,0.387,0.932,0.717,1.519,0.994l0,0l-0.421,0.887c-0.664-0.311-1.248-0.697-1.751-1.144l0,0
				L69.703,122.243L69.703,122.243z M73.041,124.008c0.635,0.316,1.211,0.675,1.745,1.067l0,0l-0.587,0.791
				c-0.48-0.359-1.017-0.689-1.598-0.98l0,0L73.041,124.008L73.041,124.008z M76.314,126.439c0.48,0.517,0.898,1.056,1.265,1.612
				l0,0l-0.824,0.536c-0.333-0.511-0.72-1.005-1.158-1.474l0,0L76.314,126.439L76.314,126.439z M78.559,129.836
				c0.294,0.647,0.525,1.293,0.709,1.903l0,0l-0.943,0.282c-0.167-0.573-0.389-1.172-0.664-1.779l0,0L78.559,129.836L78.559,129.836
				z M79.725,133.713c0.161,0.915,0.206,1.641,0.217,2.022l0,0l-0.985,0.031c-0.011-0.345-0.051-1.025-0.198-1.889l0,0
				L79.725,133.713L79.725,133.713z"/>
			<g>
				<path fill="#FFFFFF" d="M52.357,105.582c0.344-2.383-3.191-3.931-6.63-3.44c-3.442,0.494-4.747,1.31-4.747,1.31
					s-0.328,16.048,6.382,19.487c6.715,3.44,7.698,0.98,6.387-2.62C52.439,116.717,51.62,110.659,52.357,105.582z"/>
				<path fill="#101211" d="M39.395,103.433c0.006-0.533,0.291-1.039,0.743-1.321l0,0c0.206-0.13,1.739-1.019,5.354-1.536l0,0
					c0.52-0.076,1.025-0.11,1.528-0.11l0,0c1.652,0.005,3.222,0.367,4.521,1.093l0,0c1.271,0.709,2.42,1.982,2.423,3.702l0,0
					c0,0.192-0.014,0.375-0.037,0.556l0,0h-0.005c-0.169,1.228-0.254,2.544-0.254,3.86l0,0c-0.009,3.773,0.686,7.675,1.57,10.092
					l0,0c0.361,0.986,0.593,1.934,0.599,2.889l0,0c0.006,0.819-0.192,1.736-0.867,2.473l0,0c-0.675,0.74-1.677,1.048-2.635,1.039
					l0,0c-1.553-0.017-3.307-0.616-5.693-1.824l0,0c-3.877-2.084-5.413-6.701-6.32-10.934l0,0c-0.864-4.27-0.926-8.342-0.932-9.598
					l0,0C39.39,103.569,39.395,103.436,39.395,103.433L39.395,103.433z M49.971,104.317c-0.675-0.395-1.79-0.686-2.951-0.686l0,0
					c-0.356,0-0.706,0.028-1.07,0.082l0,0c-1.646,0.235-2.731,0.542-3.383,0.771l0,0c0.031,1.615,0.184,4.959,0.861,8.296l0,0
					c0.762,3.948,2.42,7.695,4.659,8.748l0,0c2.143,1.113,3.623,1.488,4.247,1.471l0,0c0.169,0,0.254-0.014,0.297-0.023l0,0
					c0.017-0.048,0.034-0.152,0.034-0.319l0,0c0.008-0.381-0.121-1.042-0.404-1.799l0,0c-1.053-2.906-1.759-7.026-1.765-11.182l0,0
					c0-1.46,0.093-2.914,0.291-4.323l0,0l1.57,0.229l-1.567-0.237c0.005-0.037,0.005-0.065,0.005-0.085l0,0c0-0.006,0-0.011,0-0.017
					l0,0C50.795,105.051,50.665,104.724,49.971,104.317L49.971,104.317z"/>
			</g>
			<path fill="#101211" d="M21.213,95.744c0.04-1.179,0.3-2.026,0.856-2.646l0,0l1.389,1.389c0.014,0.013,0,0-0.023,0.049l0,0
				c-0.034,0.058-0.076,0.159-0.113,0.278l0,0c-0.082,0.244-0.147,0.573-0.147,0.929l0,0c0.082,1.31,0.57,3.16,5.447,3.705l0,0
				c6.32,0.553,9.748,3.301,11.436,5.955l0,0c1.697,2.649,1.734,5.091,1.74,5.198l0,0l-1.965,0.025
				c-0.011,0-0.003-0.443-0.184-1.228l0,0c-0.184-0.785-0.542-1.849-1.24-2.934l0,0c-1.415-2.166-4.125-4.518-9.965-5.06l0,0
				c-5.317-0.39-7.232-3.253-7.232-5.519l0,0C21.213,95.839,21.213,95.792,21.213,95.744L21.213,95.744z"/>
		</g>
		<g>
			<g>
				<path fill="#FFFFFF" d="M264.444,104.27c1.615-4.007,7.692-10.479,17.846-10.479c10.149,0,11.134,13.097,9.172,15.881
					c-1.968,2.787-6.224,2.457-9.011-0.819c-2.781-3.273-8.675,2.784-6.546,6.057c2.126,3.273,6.385,0.819,6.546,3.603
					c0.167,2.784-0.492,6.551-8.836,6.879C265.263,125.72,259.697,116.06,264.444,104.27z"/>
				<path fill="#101211" d="M292.755,110.584c-1.186,1.703-3.109,2.575-5.026,2.558l0,0c-2.33-0.006-4.702-1.158-6.486-3.262l0,0
					c-0.296-0.325-0.452-0.361-0.768-0.384l0,0c-0.491-0.028-1.48,0.435-2.225,1.265l0,0c-0.765,0.808-1.24,1.886-1.22,2.558l0,0
					c0.005,0.313,0.071,0.522,0.203,0.731l0,0c0.907,1.548,2.539,0.887,5.097,1.748l0,0c0.898,0.342,1.711,1.516,1.705,2.626l0,0
					c0.011,0.243,0.02,0.486,0.02,0.737l0,0c0.011,1.542-0.359,3.589-2.033,5.159l0,0c-1.669,1.567-4.295,2.493-8.344,2.652l0,0
					c-0.155,0.011-0.311,0.011-0.477,0.011l0,0c-7.06-0.011-12.075-6.244-12.089-14.277l0,0c0-2.81,0.584-5.862,1.861-9.034l0,0
					l0.003,0.006c1.881-4.62,8.435-11.431,19.315-11.47l0,0c4.272-0.031,7.384,2.152,9.132,4.902l0,0
					c1.779,2.745,2.437,5.998,2.443,8.689l0,0C293.84,107.721,293.597,109.319,292.755,110.584L292.755,110.584z M273.864,113.321
					c0.02-1.821,0.898-3.44,2.064-4.719l0,0c1.183-1.248,2.711-2.242,4.546-2.267l0,0c1.129-0.02,2.361,0.5,3.185,1.494l0,0
					c1.26,1.488,2.818,2.149,4.069,2.149l0,0c1.036-0.017,1.838-0.392,2.431-1.217l0,0c0.181-0.183,0.562-1.451,0.536-2.959l0,0
					c0.009-2.169-0.584-4.925-1.926-6.958l0,0c-1.372-2.041-3.256-3.434-6.481-3.462l0,0c-9.42-0.048-15.028,6.082-16.375,9.485l0,0
					l-1.471-0.593l1.471,0.593c-1.141,2.816-1.635,5.47-1.635,7.842l0,0c0.065,6.845,3.925,11.1,8.92,11.106l0,0
					c0.104,0,0.22,0,0.35-0.006l0,0c3.657-0.141,5.461-0.983,6.297-1.785l0,0c0.824-0.793,1.025-1.708,1.033-2.86l0,0
					c0-0.181,0-0.359-0.008-0.531l0,0c-0.195-0.048-0.607-0.113-1.127-0.158l0,0c-1.316-0.121-3.705-0.412-5.168-2.688l0,0
					c-0.5-0.76-0.715-1.624-0.715-2.443l0,0C273.864,113.337,273.864,113.332,273.864,113.321L273.864,113.321z"/>
			</g>
			<path fill="#101211" d="M235.057,113.685l18.662-8.104c0,0,2.948,14.243-5.153,22.347l-13.266,6.387L235.057,113.685z"/>
			<g>
				<path fill="#FF0000" d="M209.024,138.001c0,0-12.526-11.546,0.491-18.177c13.018-6.63,37.328-15.96,37.328-15.96
					s6.385,20.139-11.543,30.452L209.024,138.001"/>
				<path fill="#101211" d="M236.093,135.688l-0.57,0.195l-26.281,3.685l-0.22-1.567l-1.073,1.164
					c-0.053-0.147-5.806-5.105-5.936-11.47l0,0c-0.048-3.366,1.974-6.896,6.783-9.276l0,0c13.159-6.704,37.455-16.02,37.478-16.036
					l0,0c0.404-0.153,0.867-0.133,1.256,0.053l0,0c0.393,0.187,0.692,0.534,0.825,0.949l0,0c0.028,0.101,1.172,3.722,1.177,8.776
					l0,0c0,0.056,0,0.113,0,0.169l0,0C249.532,119.375,247.072,129.399,236.093,135.688L236.093,135.688z M246.363,112.16
					c0-2.284-0.265-4.267-0.531-5.662l0,0c-0.028-0.178-0.065-0.347-0.096-0.505l0,0c-5.704,2.228-24.652,9.714-35.504,15.243l0,0
					c-4.1,2.152-5.001,4.309-5.052,6.458l0,0c-0.02,2.104,1.152,4.456,2.423,6.229l0,0c0.754,1.062,1.502,1.897,1.977,2.4l0,0
					l25.188-3.533C244.412,127.087,246.327,118.567,246.363,112.16L246.363,112.16z"/>
			</g>
			<path fill="#101211" d="M239.744,117.511l-0.971-0.158c0.102-0.619,0.158-1.259,0.181-1.892l0,0l0.98,0.034
				C239.911,116.164,239.851,116.842,239.744,117.511L239.744,117.511z M238.925,113.541c-0.039-0.666-0.11-1.313-0.195-1.917l0,0
				l0.971-0.136c0.088,0.624,0.158,1.299,0.203,1.993l0,0L238.925,113.541L238.925,113.541z M238.403,109.72
				c-0.24-1.149-0.463-1.867-0.463-1.867l0,0l0.94-0.291c0.006,0.017,0.235,0.771,0.48,1.957l0,0L238.403,109.72L238.403,109.72z
				 M238.381,121.374l-0.833-0.52c0.325-0.517,0.584-1.076,0.779-1.672l0,0l0.932,0.316
				C239.038,120.157,238.745,120.784,238.381,121.374L238.381,121.374z M235.274,124.127l-0.415-0.895
				c0.582-0.271,1.087-0.604,1.519-0.994l0,0v0.005l0.647,0.734C236.525,123.421,235.938,123.814,235.274,124.127L235.274,124.127z
				 M231.88,125.861l-0.584-0.785c0.528-0.395,1.104-0.754,1.739-1.067l0,0l0.441,0.875
				C232.894,125.178,232.363,125.505,231.88,125.861L231.88,125.861z M229.322,128.586l-0.819-0.537
				c0.361-0.553,0.78-1.096,1.26-1.615l0,0l0.72,0.675C230.042,127.581,229.655,128.075,229.322,128.586L229.322,128.586z
				 M227.752,132.02l-0.943-0.28c0.184-0.613,0.415-1.257,0.709-1.903l0,0l0.898,0.404
				C228.141,130.845,227.918,131.449,227.752,132.02L227.752,132.02z M227.119,135.764l-0.985-0.028
				c0.011-0.389,0.059-1.112,0.217-2.025l0,0l0.966,0.164C227.17,134.739,227.13,135.42,227.119,135.764L227.119,135.764z"/>
			<g>
				<path fill="#FFFFFF" d="M253.719,105.581c-0.344-2.38,3.191-3.928,6.63-3.439c3.442,0.491,4.747,1.31,4.747,1.31
					s0.328,16.045-6.382,19.487c-6.715,3.437-7.698,0.977-6.387-2.623C253.637,116.715,254.456,110.658,253.719,105.581z"/>
				<path fill="#101211" d="M265.754,113.414c-0.907,4.233-2.443,8.847-6.32,10.934l0,0c-2.386,1.208-4.137,1.807-5.693,1.827l0,0
					c-0.957,0.011-1.96-0.296-2.635-1.039l0,0c-0.675-0.734-0.872-1.652-0.867-2.471l0,0c0.006-0.954,0.237-1.903,0.599-2.889l0,0
					c0.884-2.428,1.579-6.325,1.57-10.095l0,0c0-1.321-0.085-2.629-0.254-3.86l0,0h-0.005c-0.023-0.183-0.037-0.367-0.037-0.553l0,0
					c0.003-1.723,1.152-2.999,2.423-3.705l0,0c1.299-0.726,2.875-1.087,4.521-1.09l0,0c0.497,0,1.003,0.034,1.519,0.102l0,0
					c3.623,0.52,5.156,1.406,5.362,1.539l0,0c0.457,0.285,0.737,0.777,0.743,1.313l0,0c0,0.008,0.005,0.147,0.005,0.387l0,0
					C266.681,105.072,266.618,109.147,265.754,113.414L265.754,113.414z M253.742,123.003c0.624,0.017,2.098-0.359,4.247-1.477l0,0
					c2.239-1.051,3.897-4.792,4.659-8.745l0,0c0.678-3.338,0.83-6.678,0.861-8.294l0,0c-0.008-0.003-0.014-0.006-0.02-0.008l0,0
					c-0.652-0.232-1.742-0.534-3.358-0.765l0,0c-0.359-0.051-0.715-0.076-1.076-0.076l0,0c-1.16-0.003-2.276,0.285-2.953,0.681l0,0
					c-0.712,0.424-0.83,0.754-0.822,0.949l0,0c0,0.014,0,0.043,0.005,0.079l0,0l-1.567,0.231l1.57-0.22
					c0.198,1.406,0.291,2.863,0.291,4.323l0,0c-0.005,4.151-0.71,8.271-1.766,11.182l0,0c-0.28,0.757-0.409,1.415-0.401,1.801l0,0
					c-0.003,0.161,0.014,0.26,0.028,0.308l0,0C253.488,122.989,253.584,123.003,253.742,123.003L253.742,123.003z"/>
			</g>
			<path fill="#101211" d="M277.631,101.401c-5.84,0.551-8.551,2.903-9.965,5.066l0,0c-1.401,2.171-1.429,4.159-1.423,4.162l0,0
				l-1.965-0.028c0.006-0.102,0.043-2.547,1.74-5.201l0,0c1.689-2.652,5.117-5.399,11.436-5.953l0,0
				c4.877-0.545,5.365-2.392,5.447-3.702l0,0c0-0.525-0.152-1.011-0.26-1.206l0,0c-0.028-0.057-0.028-0.057-0.028-0.057l0,0
				l1.398-1.381c0.548,0.621,0.819,1.465,0.853,2.643l0,0c0,0.048,0,0.093,0,0.138l0,0
				C284.863,98.157,282.948,101.02,277.631,101.401L277.631,101.401z"/>
		</g>
	</g>
	<g>
		<g>
			<g>
				<path fill="#FF0000" d="M226.275,78.069c-1.231-13.506-7.122-54.522-7.616-61.641c-0.488-7.122-14.977-13.018-60.412-13.26
					c-0.85-0.006-1.672-0.006-2.499-0.003c-0.062,0-0.121,0-0.184,0c-0.062,0-0.121,0-0.184,0c-0.291,0-0.587,0-0.878,0
					c-0.296,0-0.593,0-0.884,0c-0.059,0-0.124,0-0.183,0c-0.059,0-0.121,0-0.181,0c-0.828-0.003-1.652-0.003-2.499,0.003
					C105.32,3.411,90.831,9.307,90.34,16.428c-0.494,7.119-6.385,48.134-7.613,61.641c-1.228,13.509-2.457,17.188,6.385,20.382
					c8.816,3.185,41.069,17.352,64.142,17.434v0.003c0.053,0,0.107,0,0.161,0c0.009,0,0.014,0,0.02,0c0.006,0,0.011,0,0.023,0
					c0.051,0,0.107,0,0.161,0v-0.003c0.291,0,0.588-0.008,0.884-0.02c0.291,0.011,0.587,0.02,0.878,0.02v0.003
					c0.057,0,0.11,0,0.164,0c0.005,0,0.014,0,0.02,0c0.008,0,0.011,0,0.017,0c0.053,0,0.11,0,0.167,0v-0.003
					c23.073-0.082,55.327-14.249,64.143-17.434C228.728,95.257,227.503,91.578,226.275,78.069z"/>
				<path fill="#FF0000" d="M155.564,117.475h-0.02c-0.091,0-0.147-0.003-0.164-0.003l0,0h-1.59h-0.166h-0.006
					c-0.014,0-0.073,0.003-0.161,0.003l0,0h-0.022h-0.017c-0.093,0-0.149-0.003-0.164-0.003l0,0h-1.59v-0.034
					c-23.457-0.709-54.545-14.435-63.092-17.496l0,0c-2.99-1.087-5.12-2.29-6.512-4.14l0,0c-1.389-1.867-1.779-4.123-1.779-6.783
					l0,0c0.006-2.88,0.441-6.399,0.864-11.095l0,0c1.237-13.577,7.136-54.657,7.613-61.607l0,0
					c0.446-4.797,5.066-8.203,14.545-10.64l0,0c9.59-2.443,24.651-3.973,47.437-4.097l0,0c0.432-0.003,0.85-0.003,1.271-0.003l0,0
					c0.415,0,0.827,0,1.243,0l0,0c0.056,0,0.119,0,0.181,0l0,0c0.059,0,0.124,0,0.183,0l0,0c0.291,0,0.588,0,0.884,0l0,0
					c0.288,0,0.582,0,0.878,0l0,0c0.062,0,0.121,0,0.184,0l0,0c0.065,0,0.121,0,0.178,0l0,0c0.418,0,0.83,0,1.248,0l0,0
					c0.415,0,0.836,0,1.265,0.003l0,0c22.788,0.124,37.85,1.655,47.443,4.097l0,0c9.477,2.437,14.099,5.842,14.543,10.64l0,0
					c0.474,6.95,6.373,48.03,7.607,61.607l0,0l-1.573,0.144l-1.581,0.144c-1.22-13.441-7.107-54.386-7.613-61.677l0,0
					c-0.048-2.327-2.914-5.427-12.171-7.782l0,0c-9.129-2.341-24.03-3.888-46.675-4.004l0,0c-0.421-0.006-0.839-0.006-1.245-0.006
					l0,0c-0.418,0-0.825,0-1.24,0.006l0,0c-0.065,0-0.121,0-0.187,0l0,0c-0.062,0-0.121,0-0.184,0l0,0c-0.288,0-0.587,0-0.878,0l0,0
					c-0.299,0-0.596,0-0.884,0l0,0c-0.059,0-0.124,0-0.183,0l0,0c-0.062,0-0.121,0-0.187,0l0,0
					c-0.415-0.006-0.827-0.006-1.237-0.006l0,0c-0.421,0-0.83,0-1.251,0.006l0,0c-22.644,0.116-37.542,1.663-46.672,4.004l0,0
					c-9.256,2.355-12.12,5.456-12.168,7.782l0,0c-0.505,7.291-6.396,48.236-7.618,61.677l0,0c-0.432,4.738-0.853,8.254-0.85,10.807
					l0,0c0,2.406,0.356,3.824,1.147,4.891l0,0c0.793,1.073,2.287,2.056,5.046,3.053l0,0c8.892,3.233,41.086,17.284,63.612,17.338
					l0,0h0.178h0.178c0.251,0,0.536-0.017,0.923-0.02l0,0c0.308,0.003,0.599,0.02,0.853,0.02l0,0h0.175h0.179
					c22.528-0.054,54.717-14.105,63.606-17.338l0,0c2.762-0.997,4.25-1.98,5.049-3.053l0,0c0.793-1.067,1.144-2.482,1.144-4.891l0,0
					c0.006-2.553-0.415-6.074-0.847-10.807l0,0l1.581-0.144l1.573-0.144c0.427,4.696,0.864,8.209,0.867,11.095l0,0
					c0.003,2.666-0.393,4.922-1.779,6.783l0,0c-1.389,1.855-3.518,3.058-6.512,4.14l0,0c-8.548,3.061-39.635,16.788-63.09,17.496
					l0,0v0.034h-1.581h-0.003c-0.023,0-0.076,0.003-0.169,0.003l0,0H155.564L155.564,117.475z"/>
			</g>
			<g>
				<path fill="#101211" d="M205.666,103.927c-1.155-7.963-2.437-17.03-3.253-21.272c-0.844-4.419-14.746-11.626-44.41-11.626
					h-2.583h-1.838h-2.584c-29.664,0-43.568,7.206-44.413,11.626c-0.816,4.241-2.101,13.309-3.25,21.272
					c13.997,5.241,34.264,11.961,50.122,11.961c0.339,0,0.692-0.011,1.045-0.023c0.347,0.012,0.703,0.023,1.042,0.023
					C171.405,115.888,191.666,109.168,205.666,103.927z"/>
				<path fill="#101211" d="M154.545,117.45c-0.339,0.006-0.709,0.025-1.087,0.025l0,0c-16.282-0.02-36.61-6.808-50.679-12.066l0,0
					l-1.195-0.452l0.181-1.262c1.149-7.963,2.434-17.016,3.259-21.339l0,0c0.901-3.504,5.012-6.153,12.47-8.675l0,0
					c7.5-2.425,18.541-4.233,33.504-4.238l0,0h2.581h1.841h2.578c14.966,0.006,26.004,1.813,33.504,4.238l0,0
					c7.461,2.522,11.569,5.17,12.47,8.675l0,0c0.83,4.323,2.107,13.376,3.259,21.339l0,0l-1.57,0.229l1.57-0.229l0.181,1.262
					l-1.194,0.452c-14.069,5.258-34.392,12.046-50.674,12.066l0,0C155.16,117.475,154.793,117.455,154.545,117.45L154.545,117.45z
					 M155.544,114.301c15,0.023,34.501-6.263,48.369-11.414l0,0c-1.101-7.635-2.296-15.997-3.053-19.936l0,0
					c0.051-0.918-3.213-4.08-10.335-6.263l0,0c-7.074-2.285-17.824-4.078-32.527-4.072l0,0h-2.578h-1.841h-2.581
					c-14.706-0.006-25.451,1.787-32.53,4.072l0,0c-7.119,2.183-10.38,5.345-10.327,6.263l0,0c-0.757,3.939-1.954,12.3-3.058,19.936
					l0,0c13.87,5.151,33.369,11.437,48.374,11.414l0,0c0.302,0,0.635-0.011,1.087-0.017l0,0
					C154.9,114.29,155.242,114.301,155.544,114.301L155.544,114.301z"/>
			</g>
			<g>
				<path fill="#FFFFFF" d="M186.036,73.455L197.67,5.673c-9.265-1.494-22.085-2.414-39.423-2.505
					c-0.85-0.006-1.672-0.006-2.499-0.003c-0.062,0-0.121,0-0.184,0c-0.062,0-0.121,0-0.184,0c-0.291,0-0.587,0-0.878,0
					c-0.296,0-0.593,0-0.884,0c-0.059,0-0.124,0-0.183,0s-0.121,0-0.181,0c-0.828-0.003-1.652-0.003-2.499,0.003
					c-18.211,0.096-31.443,1.104-40.804,2.733l11.58,67.554c1.141,4.614,3.163,7.071,7.071,7.071h50.362
					C182.87,80.526,184.725,77.908,186.036,73.455z"/>
				<path fill="#101211" d="M121.043,73.534L109.387,5.498l0.483-0.082c9.4-1.635,22.65-2.643,40.883-2.742l0,0
					c0.421-0.003,0.839-0.003,1.257-0.003l0,0c0.412,0,0.827,0,1.245,0.003l0,0c0.059-0.003,0.121-0.003,0.181,0l0,0
					c0.059-0.003,0.119-0.003,0.178,0l0,0c0.296,0,0.593,0,0.889,0l0,0c0.291,0,0.585,0,0.875,0l0,0
					c0.065-0.003,0.124-0.003,0.187,0l0,0c0.062-0.003,0.121-0.003,0.184,0l0,0c0.412-0.003,0.827-0.003,1.237-0.003l0,0
					c0.418,0,0.836,0,1.265,0.003l0,0c17.352,0.093,30.192,1.011,39.502,2.516l0,0l0.492,0.073l-11.722,68.271l-0.48-0.082
					l0.469,0.136c-1.29,4.493-3.36,7.446-7.548,7.429l0,0h-50.36c-0.023,0-0.04,0-0.059,0l0,0
					C124.412,81.017,122.164,78.23,121.043,73.534L121.043,73.534z M122.003,73.331c1.175,4.555,2.948,6.673,6.599,6.701l0,0h50.36
					c3.617-0.017,5.264-2.296,6.594-6.701l0,0l11.549-67.252c-9.194-1.44-21.842-2.329-38.864-2.423l0,0
					c-0.427-0.003-0.839-0.003-1.257-0.003l0,0c-0.415,0-0.824,0-1.237,0.003l0,0c-0.062,0-0.121,0-0.184,0l0,0
					c-0.062,0-0.121,0-0.187,0l0,0c-0.288,0-0.584,0-0.875,0l0,0c-0.299,0-0.593,0-0.889,0l0,0c-0.059,0-0.119,0-0.178,0l0,0
					c-0.059,0-0.121,0-0.187,0l0,0c-0.412-0.003-0.827-0.003-1.24-0.003l0,0c-0.418,0-0.833,0-1.254,0.003l0,0
					c-17.886,0.099-30.949,1.068-40.236,2.643l0,0L122.003,73.331L122.003,73.331z"/>
			</g>
		</g>
		<g>
			<rect x="116.68" y="91.332" fill="#FFFFFF" width="16.045" height="8.839"/>
			<rect x="176.274" y="91.332" fill="#FFFFFF" width="16.045" height="8.839"/>
		</g>
		<path fill="#101211" d="M153.765,26.896l0.025-0.985c0.235,0.009,0.472,0.009,0.709,0.009l0,0c0.407,0,0.813-0.009,1.217-0.028
			l0,0l0.048,0.983c-0.418,0.023-0.841,0.028-1.265,0.028l0,0C154.251,26.902,154.008,26.902,153.765,26.896L153.765,26.896z
			 M149.784,26.45l0.189-0.96c0.621,0.119,1.257,0.217,1.9,0.291l0,0l-0.107,0.971C151.097,26.679,150.436,26.58,149.784,26.45
			L149.784,26.45z M157.631,25.719c0.641-0.09,1.271-0.2,1.895-0.333l0,0l0.209,0.96c-0.649,0.141-1.305,0.254-1.971,0.345l0,0
			L157.631,25.719L157.631,25.719z M145.932,25.36l0.345-0.921c0.599,0.223,1.206,0.424,1.827,0.601l0,0l-0.268,0.943
			C147.188,25.803,146.556,25.592,145.932,25.36L145.932,25.36z M161.387,24.897c0.616-0.189,1.22-0.412,1.813-0.647l0,0
			l0.367,0.915c-0.619,0.248-1.251,0.472-1.892,0.669l0,0L161.387,24.897L161.387,24.897z M142.312,23.649l0.491-0.85
			c0.553,0.319,1.121,0.616,1.703,0.895l0,0l-0.418,0.884C143.484,24.293,142.891,23.979,142.312,23.649L142.312,23.649z
			 M164.953,23.462c0.576-0.288,1.138-0.596,1.689-0.929l0,0l0.505,0.841c-0.565,0.344-1.155,0.669-1.754,0.968l0,0L164.953,23.462
			L164.953,23.462z M139.022,21.367l0.621-0.76c0.497,0.412,1.008,0.794,1.536,1.161l0,0l-0.559,0.808
			C140.07,22.195,139.536,21.791,139.022,21.367L139.022,21.367z M168.243,21.466c0.517-0.376,1.019-0.774,1.505-1.192l0,0
			l0.641,0.745c-0.508,0.435-1.031,0.85-1.573,1.245l0,0L168.243,21.466L168.243,21.466z M136.145,18.58l0.743-0.647
			c0.421,0.486,0.864,0.952,1.321,1.395l0,0l-0.683,0.703C137.048,19.568,136.588,19.083,136.145,18.58L136.145,18.58z
			 M171.151,18.958c0.455-0.452,0.887-0.929,1.296-1.42l0,0l0.757,0.63c-0.429,0.514-0.881,1.008-1.35,1.483l0,0L171.151,18.958
			L171.151,18.958z M133.761,15.364l0.836-0.522c0.339,0.548,0.697,1.076,1.081,1.596l0,0l-0.791,0.587
			C134.49,16.485,134.117,15.929,133.761,15.364L133.761,15.364z M173.622,16.016c0.373-0.522,0.717-1.061,1.051-1.615l0,0
			l0.841,0.5c-0.339,0.576-0.706,1.135-1.087,1.68l0,0L173.622,16.016L173.622,16.016z M131.934,11.797l0.907-0.376
			c0.243,0.599,0.514,1.18,0.808,1.751l0,0l-0.873,0.444C132.474,13.023,132.191,12.413,131.934,11.797L131.934,11.797z
			 M176.463,13.136l-0.884-0.429c0.282-0.573,0.533-1.161,0.765-1.762l0,0l0.921,0.353
			C177.019,11.927,176.751,12.537,176.463,13.136L176.463,13.136L176.463,13.136L176.463,13.136z M130.714,7.982l0.96-0.223
			c0.141,0.627,0.313,1.248,0.508,1.855l0,0l-0.935,0.299C131.042,9.281,130.867,8.637,130.714,7.982L130.714,7.982z M176.966,9.126
			c0.178-0.61,0.339-1.237,0.469-1.867l0,0l0.963,0.201c-0.138,0.655-0.299,1.31-0.489,1.94l0,0L176.966,9.126L176.966,9.126z
			 M130.138,4.018h0.006l0.545-0.031V3.496h1.963v0.985h-1.494c0.042,0.472,0.096,0.929,0.161,1.389l0,0l-0.971,0.144
			C130.251,5.356,130.181,4.693,130.138,4.018L130.138,4.018z M177.745,5.362c0.034-0.302,0.071-0.607,0.093-0.915l0,0V3.495h1.053
			l-0.037,0.522c-0.028,0.492-0.073,0.98-0.136,1.463l0,0v0.003L177.745,5.362L177.745,5.362z M173.913,4.481V3.496h1.963v0.985
			H173.913L173.913,4.481z M169.982,4.481V3.496h1.968v0.985H169.982L169.982,4.481z M166.054,4.481V3.496h1.965v0.985H166.054
			L166.054,4.481z M162.124,4.481V3.496h1.965v0.985H162.124L162.124,4.481z M158.196,4.481V3.496h1.963v0.985H158.196
			L158.196,4.481z M154.268,4.481V3.496h1.963v0.985H154.268L154.268,4.481z M150.337,4.481V3.496h1.965v0.985H150.337
			L150.337,4.481z M146.406,4.481V3.496h1.965v0.985H146.406L146.406,4.481z M142.481,4.481V3.496h1.962v0.985H142.481
			L142.481,4.481z M138.548,4.481V3.496h1.965v0.985H138.548L138.548,4.481z M134.62,4.481V3.496h1.963v0.985H134.62L134.62,4.481z"
			/>
	</g>
</g>
</svg>
