<?xml version="1.0" encoding="utf-8"?>
<!-- Generator: Adobe Illustrator 17.0.0, SVG Export Plug-In . SVG Version: 6.00 Build 0)  -->
<!DOCTYPE svg PUBLIC "-//W3C//DTD SVG 1.1//EN" "http://www.w3.org/Graphics/SVG/1.1/DTD/svg11.dtd">
<svg version="1.1" id="Capa_1" xmlns="http://www.w3.org/2000/svg" xmlns:xlink="http://www.w3.org/1999/xlink" x="0px" y="0px"
	 width="309px" height="503px" viewBox="0 0 309 503" enable-background="new 0 0 309 503" xml:space="preserve">
<g>
	<path fill="#101211" d="M2.57,50.132c-21.161,0-38.313,17.152-38.313,38.313c0,21.159,17.152,38.308,38.313,38.308
		c21.153,0,38.308-17.149,38.308-38.308C40.878,67.284,23.723,50.132,2.57,50.132z M16.319,118.406
		c-8.486,4.244-10.312-4.419-3.437-6.879C19.758,109.074,27.126,113.001,16.319,118.406z"/>
	<g>
		<g>
			<path fill="#FFFFFF" d="M49.614,74.197L2.57,75.803l-47.05-1.607c0,0-2.293,10.809,2.618,16.378
				c4.761,5.394,20.905,13.526,43.343,14.032v0.048c0.37,0,0.723-0.02,1.09-0.025c0.361,0.005,0.717,0.025,1.084,0.025v-0.048
				c22.435-0.505,38.585-8.638,43.343-14.032C51.907,85.006,49.614,74.197,49.614,74.197z"/>
			<path fill="#101211" d="M2.584,106.213c-0.313,0-0.675,0.02-1.101,0.023l0,0c-0.152,0-0.296-0.02-0.437-0.062l0,0
				c-22.633-0.658-38.793-8.65-44.099-14.551l0,0c-2.959-3.411-3.53-8.039-3.547-11.674l0,0c0-3.403,0.553-6.012,0.571-6.077l0,0
				c0.164-0.754,0.836-1.282,1.604-1.257l0,0l46.937,1.601l47.05-1.601c0.768-0.025,1.446,0.508,1.607,1.257l0,0
				c0.011,0.065,0.562,2.674,0.562,6.077l0,0c-0.011,3.637-0.585,8.268-3.547,11.674l0,0c-5.303,5.902-21.464,13.893-44.088,14.551
				l0,0c-0.144,0.042-0.288,0.062-0.441,0.062l0,0C3.228,106.233,2.869,106.213,2.584,106.213L2.584,106.213z M-43.43,79.949
				c-0.017,3.296,0.635,7.221,2.756,9.573l0,0c4.182,4.848,20.156,13.057,42.193,13.498l0,0c0.113,0,0.226,0.017,0.336,0.043l0,0
				c0.215-0.003,0.452-0.011,0.729-0.02l0,0c0.257,0.009,0.486,0.017,0.7,0.02l0,0c0.107-0.025,0.217-0.043,0.333-0.043l0,0
				c22.031-0.44,38.011-8.649,42.19-13.498l0,0c2.118-2.352,2.77-6.277,2.759-9.573l0,0c0-1.674-0.149-3.132-0.288-4.12l0,0
				L2.511,77.382l-45.649-1.553C-43.28,76.817-43.43,78.274-43.43,79.949L-43.43,79.949z M48.067,74.53l1.547-0.333L48.067,74.53
				L48.067,74.53z"/>
		</g>
		<path fill="#101211" d="M30.89,99.789c2.265-0.799,4.36-1.657,6.221-2.544V74.626l-6.221,0.212V99.789z M40.386,74.513v21.018
			c3.016-1.714,5.275-3.445,6.611-4.956c0.83-0.943,1.443-2.036,1.906-3.202V74.222L40.386,74.513z M25.327,101.531
			c0.898-0.243,1.762-0.497,2.618-0.763V74.937l-2.618,0.091V101.531z M-22.807,100.769c0.853,0.265,1.72,0.52,2.615,0.763V75.027
			l-2.615-0.091V100.769z M-31.979,97.245c1.864,0.887,3.959,1.745,6.223,2.544V74.838l-6.223-0.212V97.245z M-43.766,87.373
			c0.463,1.166,1.073,2.259,1.903,3.202c1.336,1.511,3.595,3.242,6.61,4.956V74.513l-8.514-0.291V87.373z"/>
	</g>
	<g>
		<g>
			<path fill="#FF0000" d="M3.141-54.162c18.993,0,41.914-2.29,44.204,18.338c2.293,20.631,10.151,78.592,11.789,91.359
				c1.638,12.772-8.186,32.417-55.668,32.417H1.669c-47.479,0-57.303-19.645-55.668-32.417c1.641-12.767,9.499-70.728,11.792-91.359
				c2.29-20.628,25.211-18.338,44.201-18.338H3.141z"/>
			<path fill="#FF0000" d="M1.669,89.536c-22.365-0.003-36.642-4.301-45.446-10.431l0,0c-8.813-6.113-11.995-14.13-11.97-20.944l0,0
				c0-0.969,0.057-1.912,0.178-2.827l0,0c1.64-12.778,9.496-70.75,11.786-91.336l0,0c0.929-8.937,5.899-14.238,12.47-16.827l0,0
				c6.549-2.637,14.636-2.982,22.706-2.993l0,0c3.586,0,7.172,0.076,10.6,0.076l0,0h1.146v1.584v1.584H1.994
				c-3.476,0-7.057-0.073-10.6-0.073l0,0c-7.969-0.011-15.745,0.409-21.523,2.762l0,0c-5.752,2.397-9.561,6.305-10.502,14.243l0,0
				c-2.301,20.67-10.16,78.62-11.792,91.392l0,0c-0.11,0.771-0.158,1.584-0.158,2.414l0,0c0.039,11.521,10.214,28.068,54.251,28.207
				l0,0h1.796C47.5,86.229,57.676,69.681,57.713,58.161l0,0c0-0.836-0.053-1.644-0.155-2.426l0,0
				c-1.635-12.761-9.491-70.711-11.787-91.381l0,0c-0.946-7.938-4.755-11.846-10.516-14.249l0,0
				c-5.769-2.347-13.548-2.767-21.52-2.756l0,0c-3.538,0-7.119,0.073-10.595,0.073l0,0v-1.584v-1.584
				c3.425,0,7.006-0.076,10.595-0.076l0,0c8.076,0.011,16.161,0.356,22.712,2.993l0,0c6.563,2.589,11.538,7.89,12.473,16.827l0,0
				c2.284,20.585,10.143,78.558,11.781,91.336l0,0c0.121,0.915,0.184,1.858,0.184,2.827l0,0c0.017,6.808-3.16,14.831-11.976,20.944
				l0,0c-8.81,6.13-23.085,10.428-45.443,10.431l0,0H1.669L1.669,89.536z"/>
		</g>
		<path fill="#101211" d="M29.746-46.958c0-3.431-12.17-6.221-27.176-6.221c-15.011,0-27.182,2.79-27.182,6.221
			c0,3.442,12.171,6.224,27.182,6.224C17.576-40.735,29.746-43.516,29.746-46.958z"/>
		<path fill="#101211" d="M-29.316-9.709c0,0.952-0.771,1.72-1.72,1.72l0,0c-0.949,0-1.72-0.768-1.72-1.72v-7.201
			c0-0.952,0.771-1.72,1.72-1.72l0,0c0.949,0,1.72,0.768,1.72,1.72V-9.709z"/>
		<path fill="#101211" d="M-23.832-9.709c0,0.952-0.765,1.72-1.72,1.72l0,0c-0.949,0-1.72-0.768-1.72-1.72v-7.201
			c0-0.952,0.771-1.72,1.72-1.72l0,0c0.955,0,1.72,0.768,1.72,1.72V-9.709z"/>
		<path fill="#101211" d="M-23.832,49.071c0,0.949-0.765,1.717-1.72,1.717l0,0c-0.949,0-1.72-0.768-1.72-1.717v-7.203
			c0-0.949,0.771-1.72,1.72-1.72l0,0c0.955,0,1.72,0.771,1.72,1.72V49.071z"/>
		<path fill="#101211" d="M-40.049,44.702c-4.665-0.043-10.09-3.617-12.569-4.631l0,0l0.762-1.816
			c2.734,1.195,8.087,4.521,11.807,4.478l0,0c2.259-0.091,3.772-0.847,4.518-4.718l0,0c1.81-10.821,4.269-22.478,4.91-27.145l0,0
			c0.331-2.44,1.031-4.631,3.095-6.057l0,0c2.05-1.406,5.091-1.988,9.996-1.999l0,0c9.658,0,18.668,0,18.668,0l0,0h1.31
			c0.014,0,8.997,0,18.66,0l0,0c4.905,0.011,7.946,0.593,9.994,1.999l0,0c2.064,1.426,2.77,3.617,3.098,6.057l0,0
			c0.641,4.668,3.101,16.324,4.908,27.145l0,0c0.745,3.869,2.259,4.622,4.518,4.718l0,0c3.716,0.042,9.073-3.284,11.809-4.478l0,0
			l0.003,0.003l0.763,1.813c-2.488,1.014-7.912,4.589-12.574,4.625l0,0c-3.016,0.099-5.823-1.884-6.461-6.354l0,0
			c-1.796-10.787-4.241-22.378-4.911-27.207l0,0c-0.333-2.31-0.856-3.722-2.267-4.71l0,0c-1.437-1.014-4.123-1.655-8.878-1.649l0,0
			c-9.663,0-18.645,0-18.66,0l0,0l-1.31,0.006c0,0-9.011-0.006-18.668-0.006l0,0c-4.755-0.006-7.446,0.636-8.872,1.649l0,0
			c-1.415,0.988-1.943,2.4-2.27,4.71l0,0c-0.666,4.829-3.117,16.42-4.913,27.207l0,0c-0.63,4.374-3.332,6.359-6.266,6.359l0,0
			C-39.917,44.702-39.985,44.702-40.049,44.702L-40.049,44.702z"/>
		<path fill="#101211" d="M14.84,4.576v-0.98h0.562c0.342,0,0.675-0.119,1.008-0.364l0,0l0.582,0.796
			c-0.466,0.339-1.014,0.548-1.59,0.548l0,0H14.84L14.84,4.576z M10.906,4.576v-0.98h1.962v0.98H10.906L10.906,4.576z M6.981,4.576
			v-0.98h1.963v0.98H6.981L6.981,4.576z M3.05,4.576v-0.98h1.965v0.98H3.05L3.05,4.576z M-0.878,4.576v-0.98h1.963v0.98H-0.878
			L-0.878,4.576z M-4.808,4.576v-0.98h1.965v0.98H-4.808L-4.808,4.576z M-8.736,4.576v-0.98h1.965v0.98H-8.736L-8.736,4.576z
			 M-10.998,4.576c-0.68,0-1.31-0.291-1.83-0.748l0,0l0.644-0.734c0.392,0.339,0.785,0.503,1.186,0.503l0,0h0.297v0.98H-10.998
			L-10.998,4.576z M18.347,2.328L18.347,2.328L18.347,2.328h0.005H18.347L18.347,2.328z M17.474,1.882
			c0.254-0.494,0.46-1.079,0.599-1.734l0,0l0.963,0.209c-0.155,0.726-0.389,1.387-0.689,1.971l0,0L17.474,1.882L17.474,1.882z
			 M-14.692,0.086l0.968-0.178c0.119,0.652,0.308,1.245,0.54,1.753l0,0l-0.889,0.412C-14.347,1.478-14.559,0.812-14.692,0.086
			L-14.692,0.086z M18.285-1.704c0-0.053,0-0.113,0-0.167l0,0c0-0.652-0.062-1.279-0.175-1.855l0,0l0.96-0.195
			c0.13,0.647,0.195,1.338,0.2,2.05l0,0c-0.006,0.065-0.006,0.124-0.006,0.184l0,0L18.285-1.704L18.285-1.704z M-14.867-1.964
			c0.003-0.717,0.079-1.401,0.212-2.044l0,0l0.96,0.195c-0.119,0.579-0.184,1.206-0.195,1.858l0,0L-14.867-1.964L-14.867-1.964z
			 M16.525-6.883l0.627-0.757c0.517,0.429,0.949,1.025,1.282,1.74l0,0L17.55-5.479C17.26-6.087,16.901-6.572,16.525-6.883
			L16.525-6.883z M-13.997-5.985c0.353-0.709,0.793-1.299,1.327-1.72l0,0l0.604,0.777c-0.384,0.296-0.751,0.771-1.051,1.375l0,0
			L-13.997-5.985L-13.997-5.985z M18.434-5.9l0.006-0.003L18.434-5.9L18.434-5.9L18.434-5.9z M13.047-7.332v-0.983h1.968v0.983
			H13.047L13.047-7.332z M9.121-7.332v-0.983h1.963v0.983H9.121L9.121-7.332z M5.191-7.332v-0.983h1.963v0.983H5.191L5.191-7.332z
			 M1.263-7.332v-0.983h1.965v0.983H1.263L1.263-7.332z M-2.668-7.332v-0.983h1.963v0.983H-2.668L-2.668-7.332z M-6.596-7.332
			v-0.983h1.963v0.983H-6.596L-6.596-7.332z M-10.524-7.332v-0.983h1.965v0.983H-10.524L-10.524-7.332z"/>
	</g>
	<g>
		<g>
			<g>
				<path fill="#FFFFFF" d="M-75.858,12.477c-4.007,1.615-10.476,7.692-10.476,17.846c0,10.149,13.097,11.134,15.881,9.172
					c2.781-1.968,2.454-6.224-0.822-9.011c-3.273-2.781,2.784-8.675,6.063-6.546c3.273,2.126,0.816,6.385,3.6,6.546
					c2.781,0.167,6.546-0.492,6.876-8.836C-54.409,13.296-64.072,7.73-75.858,12.477z"/>
				<path fill="#101211" d="M-83.022,39.456c-2.746-1.748-4.926-4.86-4.898-9.132l0,0c0.039-10.88,6.849-17.434,11.469-19.315l0,0
					l-0.003-0.003c3.16-1.276,6.215-1.861,9.022-1.861l0,0c8.042,0.014,14.269,5.029,14.286,12.089l0,0c0,0.149,0,0.302-0.009,0.474
					l0,0c-0.164,4.052-1.093,6.678-2.654,8.347l0,0c-1.576,1.675-3.614,2.045-5.156,2.033l0,0c-0.254,0-0.5-0.009-0.743-0.02l0,0
					c-1.107,0.006-2.281-0.808-2.62-1.705l0,0c-0.379-0.856-0.395-1.584-0.48-2.248l0,0c-0.164-1.381-0.277-2.185-1.274-2.849l0,0
					c-0.203-0.133-0.421-0.198-0.731-0.203l0,0c-0.669-0.02-1.751,0.455-2.561,1.22l0,0c-0.822,0.746-1.285,1.734-1.257,2.225l0,0
					c0.017,0.316,0.053,0.463,0.384,0.768l0,0c2.095,1.79,3.253,4.154,3.259,6.486l0,0c0.012,1.917-0.856,3.84-2.561,5.026l0,0
					c-1.265,0.842-2.861,1.084-4.781,1.11l0,0C-77.027,41.893-80.272,41.234-83.022,39.456L-83.022,39.456z M-71.371,38.199
					c0.819-0.599,1.203-1.4,1.214-2.437l0,0c0.009-1.251-0.658-2.81-2.14-4.069l0,0c-0.997-0.819-1.522-2.05-1.505-3.185l0,0
					c0.034-1.836,1.025-3.363,2.276-4.546l0,0c1.271-1.166,2.889-2.044,4.713-2.064l0,0c0.825-0.005,1.7,0.215,2.462,0.709l0,0
					c3.106,2.089,2.558,5.588,2.835,6.3l0,0c0.184,0.008,0.367,0.008,0.551,0.008l0,0c1.144-0.008,2.064-0.209,2.852-1.033l0,0
					c0.805-0.836,1.652-2.64,1.79-6.291l0,0c0.006-0.116,0.009-0.237,0.009-0.356l0,0c-0.014-4.995-4.261-8.855-11.118-8.92l0,0
					c-2.364,0-5.021,0.494-7.833,1.635l0,0c-3.4,1.347-9.529,6.955-9.486,16.375l0,0c0.031,3.225,1.425,5.108,3.461,6.481l0,0
					c2.039,1.341,4.792,1.934,6.961,1.926l0,0C-72.822,38.755-71.555,38.374-71.371,38.199L-71.371,38.199z"/>
			</g>
			<path fill="#101211" d="M-66.444-16.91l-8.104,18.662c0,0,14.246,2.948,22.35-5.153l6.385-13.266L-66.444-16.91z"/>
			<g>
				<path fill="#FF0000" d="M-42.131-42.943c0,0-11.538-12.526-18.171,0.491C-66.935-29.434-76.267-5.124-76.267-5.124
					s20.139,6.385,30.455-11.544L-42.131-42.943"/>
				<path fill="#101211" d="M-67.968-2.435c-5.057-0.005-8.675-1.149-8.776-1.177l0,0c-0.412-0.133-0.762-0.432-0.952-0.825l0,0
					c-0.186-0.389-0.209-0.853-0.048-1.256l0,0c0.009-0.023,9.327-24.319,16.031-37.478l0,0c2.377-4.809,5.907-6.831,9.279-6.783
					l0,0c6.359,0.13,11.323,5.882,11.47,5.936l0,0l-1.166,1.076l1.567,0.217l-3.682,26.281l-0.198,0.57
					C-50.735-4.895-60.751-2.435-67.799-2.435l0,0C-67.856-2.435-67.912-2.435-67.968-2.435L-67.968-2.435z M-73.63-6.135
					c1.392,0.265,3.374,0.531,5.662,0.531l0,0c6.404-0.037,14.921-1.951,20.628-11.595l0,0l3.532-25.18
					c-0.497-0.477-1.333-1.228-2.4-1.985l0,0c-1.773-1.271-4.126-2.443-6.226-2.423l0,0c-2.152,0.051-4.309,0.952-6.458,5.052l0,0
					c-5.535,10.849-13.024,29.797-15.246,35.501l0,0C-73.98-6.2-73.814-6.166-73.63-6.135L-73.63-6.135z"/>
			</g>
			<path fill="#101211" d="M-64.667-13.013c0.63-0.025,1.271-0.079,1.897-0.181l0,0l0.153,0.971
				c-0.672,0.107-1.35,0.167-2.019,0.189l0,0L-64.667-13.013L-64.667-13.013z M-68.64-12.265l0.138-0.971
				c0.599,0.084,1.248,0.155,1.917,0.195l0,0l-0.062,0.98C-67.347-12.107-68.013-12.175-68.64-12.265L-68.64-12.265z
				 M-72.563-13.087l0.288-0.94c0,0,0.715,0.223,1.864,0.463l0,0l-0.201,0.957C-71.8-12.852-72.551-13.081-72.563-13.087
				L-72.563-13.087z M-60.629-12.708L-60.629-12.708L-60.629-12.708L-60.629-12.708L-60.629-12.708L-60.629-12.708z M-60.951-13.64
				c0.596-0.203,1.158-0.455,1.677-0.782l0,0l0.52,0.836c-0.587,0.364-1.22,0.655-1.875,0.878l0,0L-60.951-13.64L-60.951-13.64z
				 M-57.887-15.594c0.387-0.435,0.717-0.932,0.994-1.519l0,0l0.887,0.421c-0.311,0.664-0.697,1.248-1.144,1.751l0,0L-57.887-15.594
				L-57.887-15.594z M-56.122-18.932c0.316-0.635,0.675-1.211,1.067-1.745l0,0l0.791,0.587c-0.359,0.48-0.689,1.017-0.98,1.598l0,0
				L-56.122-18.932L-56.122-18.932z M-53.691-22.205c0.517-0.48,1.056-0.898,1.612-1.265l0,0l0.536,0.824
				c-0.511,0.333-1.005,0.72-1.474,1.158l0,0L-53.691-22.205L-53.691-22.205z M-50.294-24.45c0.647-0.294,1.293-0.525,1.903-0.709
				l0,0l0.282,0.943c-0.573,0.167-1.172,0.389-1.779,0.664l0,0L-50.294-24.45L-50.294-24.45z M-46.417-25.616
				c0.915-0.161,1.641-0.206,2.022-0.217l0,0l0.031,0.985c-0.345,0.011-1.025,0.051-1.889,0.198l0,0L-46.417-25.616L-46.417-25.616z
				"/>
			<g>
				<path fill="#FFFFFF" d="M-74.548,1.752c-2.383-0.344-3.931,3.191-3.44,6.63c0.494,3.442,1.31,4.747,1.31,4.747
					s16.048,0.328,19.487-6.382c3.44-6.715,0.98-7.698-2.62-6.387C-63.413,1.67-69.471,2.489-74.548,1.752z"/>
				<path fill="#101211" d="M-76.697,14.714c-0.533-0.006-1.039-0.291-1.321-0.743l0,0c-0.13-0.206-1.019-1.739-1.536-5.354l0,0
					c-0.076-0.52-0.11-1.025-0.11-1.528l0,0c0.005-1.652,0.367-3.222,1.093-4.521l0,0c0.709-1.271,1.982-2.42,3.702-2.423l0,0
					c0.192,0,0.375,0.014,0.556,0.037l0,0v0.005c1.228,0.169,2.544,0.254,3.86,0.254l0,0c3.773,0.009,7.675-0.686,10.092-1.57l0,0
					c0.986-0.361,1.934-0.593,2.889-0.599l0,0c0.819-0.006,1.736,0.192,2.473,0.867l0,0c0.74,0.675,1.048,1.677,1.039,2.635l0,0
					c-0.017,1.553-0.616,3.307-1.824,5.693l0,0c-2.084,3.877-6.701,5.413-10.934,6.32l0,0c-4.27,0.864-8.342,0.926-9.598,0.932l0,0
					C-76.561,14.719-76.694,14.714-76.697,14.714L-76.697,14.714z M-75.813,4.138c-0.395,0.675-0.686,1.79-0.686,2.951l0,0
					c0,0.356,0.028,0.706,0.082,1.07l0,0c0.235,1.646,0.542,2.731,0.771,3.383l0,0c1.615-0.031,4.959-0.184,8.296-0.861l0,0
					c3.948-0.762,7.695-2.42,8.748-4.659l0,0c1.113-2.143,1.488-3.623,1.471-4.247l0,0c0-0.169-0.014-0.254-0.023-0.297l0,0
					c-0.048-0.017-0.152-0.034-0.319-0.034l0,0c-0.381-0.008-1.042,0.121-1.799,0.404l0,0c-2.906,1.053-7.026,1.759-11.182,1.765
					l0,0c-1.46,0-2.914-0.093-4.323-0.291l0,0l0.229-1.57l-0.237,1.567c-0.037-0.005-0.065-0.005-0.085-0.005l0,0
					c-0.006,0-0.011,0-0.017,0l0,0C-75.079,3.314-75.406,3.444-75.813,4.138L-75.813,4.138z"/>
			</g>
			<path fill="#101211" d="M-84.386,32.896c-1.179-0.04-2.026-0.3-2.646-0.856l0,0l1.389-1.389c0.013-0.014,0,0,0.049,0.023l0,0
				c0.058,0.034,0.159,0.076,0.278,0.113l0,0c0.244,0.082,0.573,0.147,0.929,0.147l0,0c1.31-0.082,3.16-0.57,3.705-5.447l0,0
				c0.553-6.32,3.301-9.748,5.955-11.436l0,0c2.649-1.697,5.091-1.734,5.198-1.74l0,0l0.025,1.965c0,0.011-0.443,0.003-1.228,0.184
				l0,0c-0.785,0.184-1.849,0.542-2.934,1.24l0,0c-2.166,1.415-4.518,4.125-5.06,9.965l0,0c-0.39,5.317-3.253,7.232-5.519,7.232l0,0
				C-84.291,32.896-84.338,32.896-84.386,32.896L-84.386,32.896z"/>
		</g>
		<g>
			<g>
				<path fill="#FFFFFF" d="M80.993,12.477C85,14.092,91.472,20.169,91.472,30.323c0,10.149-13.097,11.134-15.881,9.172
					c-2.787-1.968-2.457-6.224,0.819-9.011c3.273-2.781-2.784-8.675-6.057-6.546c-3.273,2.126-0.819,6.385-3.603,6.546
					c-2.784,0.167-6.551-0.492-6.879-8.836C59.543,13.296,69.203,7.73,80.993,12.477z"/>
				<path fill="#101211" d="M74.679,40.788c-1.703-1.186-2.575-3.109-2.558-5.026l0,0c0.006-2.33,1.158-4.702,3.262-6.486l0,0
					c0.325-0.296,0.361-0.452,0.384-0.768l0,0c0.028-0.491-0.435-1.48-1.265-2.225l0,0c-0.808-0.765-1.886-1.24-2.558-1.22l0,0
					c-0.313,0.005-0.522,0.071-0.731,0.203l0,0c-1.548,0.907-0.887,2.539-1.748,5.097l0,0c-0.342,0.898-1.516,1.711-2.626,1.705l0,0
					c-0.243,0.011-0.486,0.02-0.737,0.02l0,0c-1.542,0.011-3.589-0.359-5.159-2.033l0,0c-1.567-1.669-2.493-4.295-2.652-8.344l0,0
					c-0.011-0.155-0.011-0.311-0.011-0.477l0,0c0.011-7.06,6.244-12.075,14.277-12.089l0,0c2.81,0,5.862,0.584,9.034,1.861l0,0
					l-0.006,0.003c4.62,1.881,11.431,8.435,11.47,19.315l0,0c0.031,4.272-2.152,7.384-4.902,9.132l0,0
					c-2.745,1.779-5.998,2.437-8.689,2.443l0,0C77.542,41.873,75.944,41.63,74.679,40.788L74.679,40.788z M71.942,21.897
					c1.821,0.02,3.44,0.898,4.719,2.064l0,0c1.248,1.183,2.242,2.711,2.267,4.546l0,0c0.02,1.129-0.5,2.361-1.494,3.185l0,0
					c-1.488,1.26-2.149,2.818-2.149,4.069l0,0c0.017,1.036,0.392,1.838,1.217,2.431l0,0c0.183,0.181,1.451,0.562,2.959,0.536l0,0
					c2.169,0.009,4.925-0.584,6.958-1.926l0,0c2.041-1.372,3.434-3.256,3.462-6.481l0,0c0.048-9.42-6.082-15.028-9.485-16.375l0,0
					l0.593-1.471l-0.593,1.471c-2.816-1.141-5.47-1.635-7.842-1.635l0,0c-6.845,0.065-11.1,3.925-11.106,8.92l0,0
					c0,0.104,0,0.22,0.006,0.35l0,0c0.141,3.657,0.983,5.461,1.785,6.297l0,0c0.793,0.824,1.708,1.025,2.86,1.033l0,0
					c0.181,0,0.359,0,0.531-0.008l0,0c0.048-0.195,0.113-0.607,0.158-1.127l0,0c0.121-1.316,0.412-3.705,2.688-5.168l0,0
					c0.76-0.5,1.624-0.715,2.443-0.715l0,0C71.926,21.897,71.931,21.897,71.942,21.897L71.942,21.897z"/>
			</g>
			<path fill="#101211" d="M71.578-16.91l8.104,18.662c0,0-14.243,2.948-22.347-5.153l-6.387-13.266L71.578-16.91z"/>
			<g>
				<path fill="#FF0000" d="M47.262-42.943c0,0,11.546-12.526,18.177,0.491c6.63,13.018,15.96,37.328,15.96,37.328
					S61.26,1.261,50.947-16.667L47.262-42.943"/>
				<path fill="#101211" d="M49.575-15.874l-0.195-0.57l-3.685-26.281l1.567-0.22l-1.164-1.073c0.147-0.053,5.105-5.806,11.47-5.936
					l0,0c3.366-0.048,6.896,1.974,9.276,6.783l0,0c6.704,13.159,16.02,37.455,16.036,37.478l0,0
					c0.153,0.404,0.133,0.867-0.053,1.256l0,0c-0.187,0.393-0.534,0.692-0.949,0.825l0,0c-0.101,0.028-3.722,1.172-8.776,1.177l0,0
					c-0.056,0-0.113,0-0.169,0l0,0C65.888-2.435,55.864-4.895,49.575-15.874L49.575-15.874z M73.103-5.604
					c2.284,0,4.267-0.265,5.662-0.531l0,0c0.178-0.028,0.347-0.065,0.505-0.096l0,0c-2.228-5.704-9.714-24.652-15.243-35.504l0,0
					c-2.152-4.1-4.309-5.001-6.458-5.052l0,0c-2.104-0.02-4.456,1.152-6.229,2.423l0,0c-1.062,0.754-1.897,1.502-2.4,1.977l0,0
					l3.533,25.188C58.176-7.555,66.696-5.64,73.103-5.604L73.103-5.604z"/>
			</g>
			<path fill="#101211" d="M67.752-12.223l0.158-0.971c0.619,0.102,1.259,0.158,1.892,0.181l0,0l-0.034,0.98
				C69.099-12.056,68.421-12.116,67.752-12.223L67.752-12.223z M71.722-13.042c0.666-0.039,1.313-0.11,1.917-0.195l0,0l0.136,0.971
				c-0.624,0.088-1.299,0.158-1.993,0.203l0,0L71.722-13.042L71.722-13.042z M75.543-13.564c1.149-0.24,1.867-0.463,1.867-0.463l0,0
				l0.291,0.94c-0.017,0.006-0.771,0.235-1.957,0.48l0,0L75.543-13.564L75.543-13.564z M63.889-13.586l0.52-0.833
				c0.517,0.325,1.076,0.584,1.672,0.779l0,0l-0.316,0.932C65.106-12.929,64.479-13.222,63.889-13.586L63.889-13.586z
				 M61.136-16.693l0.895-0.415c0.271,0.582,0.604,1.087,0.994,1.519l0,0h-0.005l-0.734,0.647
				C61.842-15.442,61.449-16.029,61.136-16.693L61.136-16.693z M59.402-20.087l0.785-0.584c0.395,0.528,0.754,1.104,1.067,1.739l0,0
				l-0.875,0.441C60.085-19.073,59.758-19.604,59.402-20.087L59.402-20.087z M56.677-22.645l0.537-0.819
				c0.553,0.361,1.096,0.78,1.615,1.26l0,0l-0.675,0.72C57.682-21.925,57.188-22.312,56.677-22.645L56.677-22.645z M53.243-24.215
				l0.28-0.943c0.613,0.184,1.257,0.415,1.903,0.709l0,0l-0.404,0.898C54.418-23.826,53.814-24.049,53.243-24.215L53.243-24.215z
				 M49.499-24.848l0.028-0.985c0.389,0.011,1.112,0.059,2.025,0.217l0,0l-0.164,0.966C50.524-24.797,49.843-24.837,49.499-24.848
				L49.499-24.848z"/>
			<g>
				<path fill="#FFFFFF" d="M79.682,1.752c2.38-0.344,3.928,3.191,3.439,6.63c-0.491,3.442-1.31,4.747-1.31,4.747
					s-16.045,0.328-19.487-6.382c-3.437-6.715-0.977-7.698,2.623-6.387C68.548,1.67,74.605,2.489,79.682,1.752z"/>
				<path fill="#101211" d="M71.849,13.787c-4.233-0.907-8.847-2.443-10.934-6.32l0,0c-1.208-2.386-1.807-4.137-1.827-5.693l0,0
					c-0.011-0.957,0.296-1.96,1.039-2.635l0,0c0.734-0.675,1.652-0.872,2.471-0.867l0,0c0.954,0.006,1.903,0.237,2.889,0.599l0,0
					c2.428,0.884,6.325,1.579,10.095,1.57l0,0c1.321,0,2.629-0.085,3.86-0.254l0,0V0.182c0.183-0.023,0.367-0.037,0.553-0.037l0,0
					c1.723,0.003,2.999,1.152,3.705,2.423l0,0c0.726,1.299,1.087,2.875,1.09,4.521l0,0c0,0.497-0.034,1.003-0.102,1.519l0,0
					c-0.52,3.623-1.406,5.156-1.539,5.362l0,0c-0.285,0.457-0.777,0.737-1.313,0.743l0,0c-0.008,0-0.147,0.005-0.387,0.005l0,0
					C80.191,14.714,76.116,14.651,71.849,13.787L71.849,13.787z M62.26,1.775c-0.017,0.624,0.359,2.098,1.477,4.247l0,0
					c1.051,2.239,4.792,3.897,8.745,4.659l0,0c3.338,0.678,6.678,0.83,8.294,0.861l0,0c0.003-0.008,0.006-0.014,0.008-0.02l0,0
					c0.232-0.652,0.534-1.742,0.765-3.358l0,0c0.051-0.359,0.076-0.715,0.076-1.076l0,0c0.003-1.16-0.285-2.276-0.681-2.953l0,0
					c-0.424-0.712-0.754-0.83-0.949-0.822l0,0c-0.014,0-0.043,0-0.079,0.005l0,0l-0.231-1.567l0.22,1.57
					c-1.406,0.198-2.863,0.291-4.323,0.291l0,0C71.431,3.607,67.311,2.902,64.4,1.846l0,0c-0.757-0.28-1.415-0.409-1.801-0.401l0,0
					c-0.161-0.003-0.26,0.014-0.308,0.028l0,0C62.274,1.521,62.26,1.617,62.26,1.775L62.26,1.775z"/>
			</g>
			<path fill="#101211" d="M83.862,25.664c-0.551-5.84-2.903-8.551-5.066-9.965l0,0c-2.171-1.401-4.159-1.429-4.162-1.423l0,0
				l0.028-1.965c0.102,0.006,2.547,0.043,5.201,1.74l0,0c2.652,1.689,5.399,5.117,5.953,11.436l0,0
				c0.545,4.877,2.392,5.365,3.702,5.447l0,0c0.525,0,1.011-0.152,1.206-0.26l0,0c0.057-0.028,0.057-0.028,0.057-0.028l0,0
				l1.381,1.398c-0.621,0.548-1.465,0.819-2.643,0.853l0,0c-0.048,0-0.093,0-0.138,0l0,0C87.106,32.896,84.243,30.981,83.862,25.664
				L83.862,25.664z"/>
		</g>
	</g>
	<g>
		<g>
			<g>
				<path fill="#FF0000" d="M74.343-97.219c-1.231-13.506-7.122-54.522-7.616-61.641c-0.488-7.122-14.977-13.018-60.412-13.26
					c-0.85-0.006-1.672-0.006-2.499-0.003c-0.062,0-0.121,0-0.184,0c-0.062,0-0.121,0-0.184,0c-0.291,0-0.587,0-0.878,0
					c-0.296,0-0.593,0-0.884,0c-0.059,0-0.124,0-0.183,0s-0.121,0-0.181,0c-0.828-0.003-1.652-0.003-2.499,0.003
					c-45.435,0.243-59.924,6.139-60.415,13.26c-0.494,7.119-6.385,48.134-7.613,61.641c-1.228,13.509-2.457,17.188,6.385,20.382
					c8.816,3.185,41.069,17.352,64.142,17.434v0.003c0.053,0,0.107,0,0.161,0c0.009,0,0.014,0,0.02,0c0.006,0,0.011,0,0.023,0
					c0.051,0,0.107,0,0.161,0v-0.003c0.291,0,0.588-0.008,0.884-0.02c0.291,0.011,0.587,0.02,0.878,0.02v0.003
					c0.057,0,0.11,0,0.164,0c0.005,0,0.014,0,0.02,0c0.008,0,0.011,0,0.017,0c0.053,0,0.11,0,0.167,0v-0.003
					c23.073-0.082,55.327-14.249,64.143-17.434C76.796-80.031,75.571-83.71,74.343-97.219z"/>
				<path fill="#FF0000" d="M3.632-57.813h-0.02c-0.091,0-0.147-0.003-0.164-0.003l0,0h-1.59H1.692H1.686
					c-0.014,0-0.073,0.003-0.161,0.003l0,0H1.503H1.486c-0.093,0-0.149-0.003-0.164-0.003l0,0h-1.59v-0.034
					c-23.457-0.709-54.545-14.435-63.092-17.496l0,0c-2.99-1.087-5.12-2.29-6.512-4.14l0,0c-1.389-1.867-1.779-4.123-1.779-6.783
					l0,0c0.006-2.88,0.441-6.399,0.864-11.095l0,0c1.237-13.577,7.136-54.657,7.613-61.607l0,0
					c0.446-4.797,5.066-8.203,14.545-10.64l0,0c9.59-2.443,24.651-3.973,47.437-4.097l0,0c0.432-0.003,0.85-0.003,1.271-0.003l0,0
					c0.415,0,0.827,0,1.243,0l0,0c0.056,0,0.119,0,0.181,0l0,0c0.059,0,0.124,0,0.183,0l0,0c0.291,0,0.588,0,0.884,0l0,0
					c0.288,0,0.582,0,0.878,0l0,0c0.062,0,0.121,0,0.184,0l0,0c0.065,0,0.121,0,0.178,0l0,0c0.418,0,0.83,0,1.248,0l0,0
					c0.415,0,0.836,0,1.265,0.003l0,0c22.788,0.124,37.85,1.655,47.443,4.097l0,0c9.477,2.437,14.099,5.842,14.543,10.64l0,0
					c0.474,6.95,6.373,48.03,7.607,61.607l0,0l-1.573,0.144l-1.581,0.144c-1.22-13.441-7.107-54.386-7.613-61.677l0,0
					c-0.048-2.327-2.914-5.427-12.171-7.782l0,0c-9.129-2.341-24.03-3.888-46.675-4.004l0,0c-0.421-0.006-0.839-0.006-1.245-0.006
					l0,0c-0.418,0-0.825,0-1.24,0.006l0,0c-0.065,0-0.121,0-0.187,0l0,0c-0.062,0-0.121,0-0.184,0l0,0c-0.288,0-0.587,0-0.878,0l0,0
					c-0.299,0-0.596,0-0.884,0l0,0c-0.059,0-0.124,0-0.183,0l0,0c-0.062,0-0.121,0-0.187,0l0,0
					c-0.415-0.006-0.827-0.006-1.237-0.006l0,0c-0.421,0-0.83,0-1.251,0.006l0,0c-22.644,0.116-37.542,1.663-46.672,4.004l0,0
					c-9.256,2.355-12.12,5.456-12.168,7.782l0,0c-0.505,7.291-6.396,48.236-7.618,61.677l0,0c-0.432,4.738-0.853,8.254-0.85,10.807
					l0,0c0,2.406,0.356,3.824,1.147,4.891l0,0c0.793,1.073,2.287,2.056,5.046,3.053l0,0c8.892,3.233,41.086,17.284,63.612,17.338
					l0,0h0.178h0.178c0.251,0,0.536-0.017,0.923-0.02l0,0c0.308,0.003,0.599,0.02,0.853,0.02l0,0h0.175H3.81
					c22.528-0.054,54.717-14.105,63.606-17.338l0,0c2.762-0.997,4.25-1.98,5.049-3.053l0,0c0.793-1.067,1.144-2.482,1.144-4.891l0,0
					c0.006-2.553-0.415-6.074-0.847-10.807l0,0l1.581-0.144l1.573-0.144c0.427,4.696,0.864,8.209,0.867,11.095l0,0
					c0.003,2.666-0.393,4.922-1.779,6.783l0,0c-1.389,1.855-3.518,3.058-6.512,4.14l0,0C59.944-72.285,28.857-58.558,5.402-57.85
					l0,0v0.034H3.821H3.818c-0.023,0-0.076,0.003-0.169,0.003l0,0H3.632L3.632-57.813z"/>
			</g>
			<g>
				<path fill="#101211" d="M53.734-71.361c-1.155-7.963-2.437-17.03-3.253-21.272c-0.844-4.419-14.746-11.626-44.41-11.626H3.488
					H1.65h-2.584c-29.664,0-43.568,7.206-44.413,11.626c-0.816,4.241-2.101,13.309-3.25,21.272C-34.6-66.12-14.333-59.4,1.525-59.4
					c0.339,0,0.692-0.011,1.045-0.023C2.917-59.411,3.273-59.4,3.612-59.4C19.473-59.4,39.734-66.12,53.734-71.361z"/>
				<path fill="#101211" d="M2.613-57.838c-0.339,0.006-0.709,0.025-1.087,0.025l0,0c-16.282-0.02-36.61-6.808-50.679-12.066l0,0
					l-1.195-0.452l0.181-1.262c1.149-7.963,2.434-17.016,3.259-21.339l0,0c0.901-3.504,5.012-6.153,12.47-8.675l0,0
					c7.5-2.425,18.541-4.233,33.504-4.238l0,0h2.581h1.841h2.578c14.966,0.006,26.004,1.813,33.504,4.238l0,0
					c7.461,2.522,11.569,5.17,12.47,8.675l0,0c0.83,4.323,2.107,13.376,3.259,21.339l0,0l-1.57,0.229l1.57-0.229l0.181,1.262
					l-1.194,0.452C40.217-64.621,19.894-57.833,3.612-57.813l0,0C3.228-57.813,2.861-57.833,2.613-57.838L2.613-57.838z
					 M3.612-60.987c15,0.023,34.501-6.263,48.369-11.414l0,0c-1.101-7.635-2.296-15.997-3.053-19.936l0,0
					c0.051-0.918-3.213-4.08-10.335-6.263l0,0c-7.074-2.285-17.824-4.078-32.527-4.072l0,0H3.488H1.647h-2.581
					c-14.706-0.006-25.451,1.787-32.53,4.072l0,0c-7.119,2.183-10.38,5.345-10.327,6.263l0,0c-0.757,3.939-1.954,12.3-3.058,19.936
					l0,0C-32.979-67.25-13.48-60.964,1.525-60.987l0,0c0.302,0,0.635-0.011,1.087-0.017l0,0C2.968-60.998,3.31-60.987,3.612-60.987
					L3.612-60.987z"/>
			</g>
			<g>
				<path fill="#FFFFFF" d="M34.104-101.833l11.634-67.782c-9.265-1.494-22.085-2.414-39.423-2.505
					c-0.85-0.006-1.672-0.006-2.499-0.003c-0.062,0-0.121,0-0.184,0c-0.062,0-0.121,0-0.184,0c-0.291,0-0.587,0-0.878,0
					c-0.296,0-0.593,0-0.884,0c-0.059,0-0.124,0-0.183,0s-0.121,0-0.181,0c-0.828-0.003-1.652-0.003-2.499,0.003
					c-18.211,0.096-31.443,1.104-40.804,2.733l11.58,67.554c1.141,4.614,3.163,7.071,7.071,7.071h50.362
					C30.938-94.762,32.793-97.38,34.104-101.833z"/>
				<path fill="#101211" d="M-30.889-101.754l-11.656-68.036l0.483-0.082c9.4-1.635,22.65-2.643,40.883-2.742l0,0
					c0.421-0.003,0.839-0.003,1.257-0.003l0,0c0.412,0,0.827,0,1.245,0.003l0,0c0.059-0.003,0.121-0.003,0.181,0l0,0
					c0.059-0.003,0.119-0.003,0.178,0l0,0c0.296,0,0.593,0,0.889,0l0,0c0.291,0,0.585,0,0.875,0l0,0
					c0.065-0.003,0.124-0.003,0.187,0l0,0c0.062-0.003,0.121-0.003,0.184,0l0,0c0.412-0.003,0.827-0.003,1.237-0.003l0,0
					c0.418,0,0.836,0,1.265,0.003l0,0c17.352,0.093,30.192,1.011,39.502,2.516l0,0l0.492,0.073l-11.722,68.271l-0.48-0.082
					l0.469,0.136c-1.29,4.493-3.36,7.446-7.548,7.429l0,0h-50.36c-0.023,0-0.04,0-0.059,0l0,0
					C-27.52-94.271-29.768-97.058-30.889-101.754L-30.889-101.754z M-29.929-101.957c1.175,4.555,2.948,6.673,6.599,6.701l0,0h50.36
					c3.617-0.017,5.264-2.296,6.594-6.701l0,0l11.549-67.252c-9.194-1.44-21.842-2.329-38.864-2.423l0,0
					c-0.427-0.003-0.839-0.003-1.257-0.003l0,0c-0.415,0-0.824,0-1.237,0.003l0,0c-0.062,0-0.121,0-0.184,0l0,0
					c-0.062,0-0.121,0-0.187,0l0,0c-0.288,0-0.584,0-0.875,0l0,0c-0.299,0-0.593,0-0.889,0l0,0c-0.059,0-0.119,0-0.178,0l0,0
					c-0.059,0-0.121,0-0.187,0l0,0c-0.412-0.003-0.827-0.003-1.24-0.003l0,0c-0.418,0-0.833,0-1.254,0.003l0,0
					c-17.886,0.099-30.949,1.068-40.236,2.643l0,0L-29.929-101.957L-29.929-101.957z"/>
			</g>
		</g>
		<g>
			<rect x="-35.252" y="-83.956" fill="#FFFFFF" width="16.045" height="8.839"/>
			<rect x="24.342" y="-83.956" fill="#FFFFFF" width="16.045" height="8.839"/>
		</g>
		<path fill="#101211" d="M1.833-148.392l0.025-0.985c0.235,0.009,0.472,0.009,0.709,0.009l0,0c0.407,0,0.813-0.009,1.217-0.028l0,0
			l0.048,0.983c-0.418,0.023-0.841,0.028-1.265,0.028l0,0C2.319-148.386,2.076-148.386,1.833-148.392L1.833-148.392z
			 M-2.148-148.838l0.189-0.96c0.621,0.119,1.257,0.217,1.9,0.291l0,0l-0.107,0.971C-0.835-148.609-1.496-148.708-2.148-148.838
			L-2.148-148.838z M5.699-149.569c0.641-0.09,1.271-0.2,1.895-0.333l0,0l0.209,0.96c-0.649,0.141-1.305,0.254-1.971,0.345l0,0
			L5.699-149.569L5.699-149.569z M-6-149.928l0.345-0.921c0.599,0.223,1.206,0.424,1.827,0.601l0,0l-0.268,0.943
			C-4.744-149.485-5.376-149.696-6-149.928L-6-149.928z M9.455-150.391c0.616-0.189,1.22-0.412,1.813-0.647l0,0l0.367,0.915
			c-0.619,0.248-1.251,0.472-1.892,0.669l0,0L9.455-150.391L9.455-150.391z M-9.62-151.639l0.491-0.85
			c0.553,0.319,1.121,0.616,1.703,0.895l0,0l-0.418,0.884C-8.448-150.995-9.041-151.309-9.62-151.639L-9.62-151.639z
			 M13.021-151.826c0.576-0.288,1.138-0.596,1.689-0.929l0,0l0.505,0.841c-0.565,0.344-1.155,0.669-1.754,0.968l0,0L13.021-151.826
			L13.021-151.826z M-12.91-153.921l0.621-0.76c0.497,0.412,1.008,0.794,1.536,1.161l0,0l-0.559,0.808
			C-11.862-153.093-12.396-153.497-12.91-153.921L-12.91-153.921z M16.311-153.822c0.517-0.376,1.019-0.774,1.505-1.192l0,0
			l0.641,0.745c-0.508,0.435-1.031,0.85-1.573,1.245l0,0L16.311-153.822L16.311-153.822z M-15.787-156.708l0.743-0.647
			c0.421,0.486,0.864,0.952,1.321,1.395l0,0l-0.683,0.703C-14.884-155.72-15.344-156.205-15.787-156.708L-15.787-156.708z
			 M19.219-156.33c0.455-0.452,0.887-0.929,1.296-1.42l0,0l0.757,0.63c-0.429,0.514-0.881,1.008-1.35,1.483l0,0L19.219-156.33
			L19.219-156.33z M-18.171-159.924l0.836-0.522c0.339,0.548,0.697,1.076,1.081,1.596l0,0l-0.791,0.587
			C-17.442-158.803-17.815-159.359-18.171-159.924L-18.171-159.924z M21.69-159.272c0.373-0.522,0.717-1.061,1.051-1.615l0,0
			l0.841,0.5c-0.339,0.576-0.706,1.135-1.087,1.68l0,0L21.69-159.272L21.69-159.272z M-19.998-163.491l0.907-0.376
			c0.243,0.599,0.514,1.18,0.808,1.751l0,0l-0.873,0.444C-19.458-162.265-19.741-162.875-19.998-163.491L-19.998-163.491z
			 M24.531-162.152l-0.884-0.429c0.282-0.573,0.533-1.161,0.765-1.762l0,0l0.921,0.353
			C25.087-163.361,24.819-162.751,24.531-162.152L24.531-162.152L24.531-162.152L24.531-162.152z M-21.218-167.306l0.96-0.223
			c0.141,0.627,0.313,1.248,0.508,1.855l0,0l-0.935,0.299C-20.89-166.007-21.065-166.651-21.218-167.306L-21.218-167.306z
			 M25.034-166.162c0.178-0.61,0.339-1.237,0.469-1.867l0,0l0.963,0.201c-0.138,0.655-0.299,1.31-0.489,1.94l0,0L25.034-166.162
			L25.034-166.162z M-21.794-171.27h0.006l0.545-0.031v-0.491h1.963v0.985h-1.494c0.042,0.472,0.096,0.929,0.161,1.389l0,0
			l-0.971,0.144C-21.681-169.932-21.751-170.595-21.794-171.27L-21.794-171.27z M25.813-169.926
			c0.034-0.302,0.071-0.607,0.093-0.915l0,0v-0.952h1.053l-0.037,0.522c-0.028,0.492-0.073,0.98-0.136,1.463l0,0v0.003
			L25.813-169.926L25.813-169.926z M21.981-170.807v-0.985h1.963v0.985H21.981L21.981-170.807z M18.05-170.807v-0.985h1.968v0.985
			H18.05L18.05-170.807z M14.122-170.807v-0.985h1.965v0.985H14.122L14.122-170.807z M10.192-170.807v-0.985h1.965v0.985H10.192
			L10.192-170.807z M6.264-170.807v-0.985h1.963v0.985H6.264L6.264-170.807z M2.336-170.807v-0.985h1.963v0.985H2.336L2.336-170.807
			z M-1.595-170.807v-0.985H0.37v0.985H-1.595L-1.595-170.807z M-5.526-170.807v-0.985h1.965v0.985H-5.526L-5.526-170.807z
			 M-9.451-170.807v-0.985h1.962v0.985H-9.451L-9.451-170.807z M-13.384-170.807v-0.985h1.965v0.985H-13.384L-13.384-170.807z
			 M-17.312-170.807v-0.985h1.963v0.985H-17.312L-17.312-170.807z"/>
	</g>
</g>
</svg>
